<svg xmlns="http://www.w3.org/2000/svg" version="1.1" xmlns:xlink="http://www.w3.org/1999/xlink" xmlns:svgjs="http://svgjs.dev/svgjs" viewBox="0 0 6.4960108616758845 6.2542706940251955"><g transform="matrix(1,0,0,1,0.5311471392119662,3.850345429813229)"><rect width="6.4960108616758845" height="6.4960108616758845" x="-0.5311471392119662" y="-3.9712155136385734" fill="#ffffff"></rect><g><path d=" M 0.0765 0.9809999999999999 Q 0.06 0.9809999999999999 0.043500000000000004 0.9764999999999999 Q 0.027 0.972 0.0195 0.9584999999999999 Q 0.0135 0.9464999999999999 0.021 0.9292499999999999 Q 0.0285 0.9119999999999999 0.042 0.8985 Q 0.054 0.8865 0.07275 0.8744999999999999 Q 0.0915 0.8624999999999999 0.1125 0.8549999999999999 L 0.1155 0.8549999999999999 Q 0.123 0.8549999999999999 0.123 0.86025 Q 0.123 0.8654999999999999 0.117 0.8699999999999999 Q 0.09 0.8835 0.075 0.9029999999999999 Q 0.0645 0.9149999999999999 0.0645 0.9284999999999999 Q 0.0645 0.9524999999999999 0.093 0.9524999999999999 Q 0.1245 0.9524999999999999 0.16125 0.93375 Q 0.198 0.9149999999999999 0.23175 0.8842499999999999 Q 0.2655 0.8534999999999999 0.28650000000000003 0.819 Q 0.3075 0.7845 0.3075 0.7529999999999999 Q 0.3075 0.7319999999999999 0.28500000000000003 0.7147499999999999 Q 0.2625 0.6974999999999999 0.23550000000000001 0.6832499999999999 Q 0.2085 0.6689999999999999 0.195 0.6599999999999999 Q 0.1785 0.6479999999999999 0.165 0.6352499999999999 Q 0.1515 0.6224999999999998 0.14400000000000002 0.6074999999999999 Q 0.132 0.6284999999999998 0.11325 0.65775 Q 0.0945 0.6869999999999999 0.069 0.7184999999999999 Q 0.06 0.7274999999999999 0.051000000000000004 0.7274999999999999 Q 0.042 0.7274999999999999 0.042 0.72 Q 0.042 0.7154999999999999 0.0495 0.7049999999999998 Q 0.09 0.6569999999999999 0.1095 0.6164999999999999 Q 0.129 0.5759999999999998 0.1365 0.5549999999999999 Q 0.14250000000000002 0.5114999999999998 0.177 0.4724999999999999 Q 0.2115 0.4334999999999999 0.261 0.4042499999999999 Q 0.3105 0.3749999999999999 0.36225 0.35849999999999993 Q 0.41400000000000003 0.34199999999999986 0.4545 0.34199999999999986 Q 0.495 0.34199999999999986 0.5265 0.3569999999999999 Q 0.558 0.3719999999999999 0.558 0.4049999999999999 Q 0.558 0.42299999999999993 0.5475 0.4439999999999999 Q 0.534 0.4724999999999999 0.5025000000000001 0.4949999999999999 Q 0.501 0.4964999999999999 0.498 0.4964999999999999 Q 0.486 0.4964999999999999 0.486 0.48599999999999993 Q 0.486 0.4784999999999999 0.4935 0.4709999999999999 Q 0.5055000000000001 0.4604999999999999 0.513 0.4454999999999999 Q 0.5205 0.4304999999999999 0.5205 0.4169999999999999 Q 0.5205 0.3899999999999999 0.489 0.3899999999999999 Q 0.4665 0.3899999999999999 0.4365 0.3982499999999999 Q 0.40650000000000003 0.4064999999999999 0.37875000000000003 0.4177499999999999 Q 0.35100000000000003 0.4289999999999999 0.333 0.4379999999999999 Q 0.2955 0.4559999999999999 0.264 0.4822499999999999 Q 0.2325 0.5085 0.20400000000000001 0.5474999999999999 Q 0.1845 0.573 0.1845 0.5954999999999999 Q 0.1845 0.6224999999999998 0.2205 0.6449999999999999 Q 0.258 0.6659999999999999 0.29475 0.6854999999999999 Q 0.3315 0.7049999999999998 0.357 0.7274999999999999 Q 0.3825 0.7499999999999999 0.3825 0.7814999999999999 Q 0.3825 0.816 0.339 0.8639999999999999 Q 0.312 0.8939999999999999 0.26625 0.9209999999999999 Q 0.2205 0.948 0.1695 0.9644999999999999 Q 0.11850000000000001 0.9809999999999999 0.0765 0.9809999999999999 M 0.49353076171875 0.9254999999999999 Q 0.48153076171875003 0.9254999999999999 0.48603076171875004 0.9149999999999999 Q 0.49203076171875004 0.9045 0.50778076171875 0.8617499999999999 Q 0.52353076171875 0.819 0.54378076171875 0.7605 Q 0.56403076171875 0.702 0.58353076171875 0.6479999999999999 Q 0.56853076171875 0.6704999999999999 0.5512807617187501 0.6914999999999999 Q 0.53403076171875 0.7124999999999999 0.5220307617187501 0.726 Q 0.51753076171875 0.7304999999999999 0.5160307617187501 0.7304999999999999 Q 0.51153076171875 0.7304999999999999 0.51153076171875 0.7214999999999999 Q 0.51153076171875 0.7034999999999999 0.52053076171875 0.6884999999999999 Q 0.55203076171875 0.6479999999999999 0.56853076171875 0.6247499999999999 Q 0.58503076171875 0.6014999999999999 0.59628076171875 0.5827499999999999 Q 0.60753076171875 0.5639999999999998 0.61953076171875 0.5399999999999999 Q 0.62253076171875 0.5234999999999999 0.63078076171875 0.4994999999999999 Q 0.6390307617187501 0.4754999999999999 0.67053076171875 0.4754999999999999 Q 0.71703076171875 0.4754999999999999 0.71703076171875 0.4949999999999999 Q 0.71703076171875 0.5009999999999999 0.71403076171875 0.5077499999999999 Q 0.71103076171875 0.5145 0.70803076171875 0.5219999999999999 Q 0.69003076171875 0.5624999999999999 0.66903076171875 0.615 Q 0.64803076171875 0.6674999999999999 0.63078076171875 0.714 Q 0.61353076171875 0.7605 0.60453076171875 0.7859999999999999 Q 0.62103076171875 0.7649999999999999 0.65403076171875 0.7267499999999999 Q 0.68703076171875 0.6884999999999999 0.72978076171875 0.6427499999999999 Q 0.77253076171875 0.597 0.81828076171875 0.55575 Q 0.86403076171875 0.5145 0.90453076171875 0.48749999999999993 Q 0.94503076171875 0.4604999999999999 0.97353076171875 0.4604999999999999 Q 1.00803076171875 0.4604999999999999 1.00803076171875 0.4994999999999999 Q 1.00803076171875 0.5294999999999999 0.98403076171875 0.5774999999999999 Q 0.97353076171875 0.5999999999999999 0.9555307617187501 0.63825 Q 0.93753076171875 0.6764999999999999 0.9270307617187501 0.696 Q 0.95403076171875 0.6719999999999999 0.98853076171875 0.6427499999999999 Q 1.0230307617187502 0.6134999999999999 1.06128076171875 0.5879999999999999 Q 1.09953076171875 0.5624999999999999 1.13253076171875 0.5505 Q 1.1400307617187502 0.5474999999999999 1.1625307617187501 0.5407499999999998 Q 1.18503076171875 0.5339999999999999 1.20153076171875 0.5339999999999999 Q 1.22403076171875 0.5339999999999999 1.22403076171875 0.5489999999999999 Q 1.22403076171875 0.5594999999999999 1.21353076171875 0.5714999999999999 Q 1.18803076171875 0.6104999999999999 1.16778076171875 0.6547499999999999 Q 1.14753076171875 0.6989999999999998 1.13553076171875 0.7379999999999999 Q 1.12353076171875 0.7769999999999999 1.1205307617187499 0.8009999999999999 Q 1.11903076171875 0.8069999999999999 1.11903076171875 0.8122499999999999 Q 1.11903076171875 0.8174999999999999 1.11903076171875 0.8234999999999999 Q 1.11903076171875 0.8835 1.15803076171875 0.8835 Q 1.18203076171875 0.8835 1.21953076171875 0.85725 Q 1.2570307617187502 0.831 1.2960307617187499 0.79275 Q 1.33503076171875 0.7545 1.36728076171875 0.71925 Q 1.39953076171875 0.6839999999999999 1.41153076171875 0.6659999999999999 Q 1.41603076171875 0.6615 1.4205307617187501 0.6615 Q 1.42653076171875 0.6615 1.43028076171875 0.6659999999999999 Q 1.43403076171875 0.6704999999999999 1.43103076171875 0.6779999999999999 Q 1.41753076171875 0.7034999999999999 1.3852807617187501 0.7417499999999999 Q 1.35303076171875 0.7799999999999999 1.31328076171875 0.8182499999999999 Q 1.27353076171875 0.8564999999999999 1.23603076171875 0.8835 Q 1.21653076171875 0.8985 1.1872807617187502 0.90975 Q 1.15803076171875 0.9209999999999999 1.1280307617187502 0.9209999999999999 Q 1.10103076171875 0.9209999999999999 1.07928076171875 0.9089999999999999 Q 1.0575307617187502 0.8969999999999999 1.04703076171875 0.8639999999999999 Q 1.04253076171875 0.8504999999999999 1.04253076171875 0.8294999999999999 Q 1.04253076171875 0.7964999999999999 1.05153076171875 0.7545 Q 1.06053076171875 0.7124999999999999 1.07103076171875 0.6839999999999999 Q 1.07853076171875 0.6629999999999999 1.09128076171875 0.6367499999999999 Q 1.1040307617187501 0.6104999999999999 1.11453076171875 0.5924999999999999 Q 1.06803076171875 0.6104999999999999 1.02453076171875 0.6464999999999999 Q 0.98103076171875 0.6824999999999999 0.94578076171875 0.71925 Q 0.91053076171875 0.7559999999999999 0.88653076171875 0.7799999999999999 Q 0.88053076171875 0.7964999999999999 0.86328076171875 0.8069999999999999 Q 0.84603076171875 0.8174999999999999 0.83103076171875 0.8174999999999999 Q 0.80853076171875 0.8174999999999999 0.80853076171875 0.7979999999999999 Q 0.80853076171875 0.7904999999999999 0.81303076171875 0.7799999999999999 Q 0.82803076171875 0.7439999999999999 0.8467807617187499 0.7057499999999999 Q 0.86553076171875 0.6674999999999999 0.88128076171875 0.6359999999999999 Q 0.8970307617187501 0.6044999999999999 0.9030307617187501 0.5924999999999999 Q 0.9150307617187501 0.5714999999999999 0.9150307617187501 0.5594999999999999 Q 0.9150307617187501 0.5474999999999999 0.90453076171875 0.5474999999999999 Q 0.89403076171875 0.5474999999999999 0.87003076171875 0.5609999999999999 Q 0.84603076171875 0.5744999999999999 0.80703076171875 0.609 Q 0.77553076171875 0.6375 0.73803076171875 0.6832499999999999 Q 0.70053076171875 0.7289999999999999 0.66603076171875 0.7769999999999999 Q 0.63153076171875 0.825 0.60528076171875 0.8594999999999999 Q 0.57903076171875 0.8939999999999999 0.56853076171875 0.8999999999999999 Q 0.55953076171875 0.9045 0.53328076171875 0.9149999999999999 Q 0.5070307617187501 0.9254999999999999 0.49353076171875 0.9254999999999999 M 1.8270424804687502 0.9209999999999999 Q 1.80154248046875 0.9209999999999999 1.7797924804687502 0.9089999999999999 Q 1.75804248046875 0.8969999999999999 1.74754248046875 0.8639999999999999 Q 1.74304248046875 0.8504999999999999 1.74304248046875 0.8264999999999999 Q 1.74304248046875 0.7934999999999999 1.75204248046875 0.7529999999999999 Q 1.7610424804687501 0.7124999999999999 1.77154248046875 0.6839999999999999 Q 1.76404248046875 0.6869999999999999 1.7437924804687501 0.7102499999999999 Q 1.72354248046875 0.7334999999999999 1.69429248046875 0.7657499999999999 Q 1.66504248046875 0.7979999999999999 1.62979248046875 0.8302499999999999 Q 1.59454248046875 0.8624999999999999 1.55704248046875 0.8835 Q 1.51954248046875 0.9045 1.48354248046875 0.9045 Q 1.45954248046875 0.9045 1.43254248046875 0.8902499999999999 Q 1.40554248046875 0.8759999999999999 1.38904248046875 0.8534999999999999 Q 1.36654248046875 0.8234999999999999 1.36654248046875 0.7919999999999999 Q 1.36654248046875 0.7515 1.39429248046875 0.708 Q 1.42204248046875 0.6644999999999999 1.46629248046875 0.6232499999999999 Q 1.51054248046875 0.5819999999999999 1.56079248046875 0.5482499999999999 Q 1.61104248046875 0.5145 1.65679248046875 0.4912499999999999 Q 1.70254248046875 0.4679999999999999 1.73104248046875 0.4604999999999999 Q 1.7610424804687501 0.4514999999999999 1.79854248046875 0.4514999999999999 Q 1.8195424804687501 0.4514999999999999 1.84204248046875 0.45674999999999993 Q 1.86454248046875 0.4619999999999999 1.87954248046875 0.4739999999999999 Q 1.89154248046875 0.4799999999999999 1.89904248046875 0.4904999999999999 Q 1.90654248046875 0.5009999999999999 1.90654248046875 0.5129999999999999 Q 1.90654248046875 0.5249999999999999 1.8960424804687501 0.5205 Q 1.8840424804687501 0.5025 1.86379248046875 0.4972499999999999 Q 1.84354248046875 0.4919999999999999 1.82254248046875 0.4919999999999999 Q 1.76254248046875 0.4919999999999999 1.69054248046875 0.5309999999999999 Q 1.61854248046875 0.5699999999999998 1.56154248046875 0.6224999999999998 Q 1.54354248046875 0.6375 1.51279248046875 0.6742499999999999 Q 1.48204248046875 0.7109999999999999 1.4565424804687501 0.7545 Q 1.43104248046875 0.7979999999999999 1.43104248046875 0.8339999999999999 Q 1.43104248046875 0.8534999999999999 1.44154248046875 0.8684999999999999 Q 1.44754248046875 0.8789999999999999 1.46104248046875 0.8789999999999999 Q 1.48204248046875 0.8789999999999999 1.51729248046875 0.8564999999999999 Q 1.55254248046875 0.8339999999999999 1.59004248046875 0.80175 Q 1.6275424804687502 0.7694999999999999 1.65829248046875 0.7394999999999999 Q 1.68904248046875 0.7094999999999999 1.70254248046875 0.696 Q 1.71004248046875 0.6884999999999999 1.7317924804687501 0.6652499999999999 Q 1.75354248046875 0.6419999999999999 1.7790424804687501 0.615 Q 1.80454248046875 0.5879999999999999 1.82479248046875 0.5684999999999999 Q 1.84504248046875 0.5489999999999999 1.8510424804687502 0.5489999999999999 Q 1.85854248046875 0.5489999999999999 1.87579248046875 0.5527499999999999 Q 1.89304248046875 0.5564999999999999 1.90504248046875 0.5639999999999998 Q 1.91704248046875 0.5714999999999999 1.9095424804687502 0.5834999999999999 Q 1.87054248046875 0.6404999999999998 1.84729248046875 0.7027499999999999 Q 1.82404248046875 0.7649999999999999 1.8195424804687501 0.8009999999999999 Q 1.81804248046875 0.8069999999999999 1.81804248046875 0.8122499999999999 Q 1.81804248046875 0.8174999999999999 1.81804248046875 0.8234999999999999 Q 1.81804248046875 0.8835 1.86004248046875 0.8835 Q 1.88254248046875 0.8835 1.9200424804687501 0.8564999999999999 Q 1.95754248046875 0.8294999999999999 1.99654248046875 0.7919999999999999 Q 2.03554248046875 0.7545 2.06779248046875 0.71925 Q 2.1000424804687503 0.6839999999999999 2.11204248046875 0.6659999999999999 Q 2.11654248046875 0.6615 2.12104248046875 0.6615 Q 2.12704248046875 0.6615 2.13154248046875 0.66675 Q 2.13604248046875 0.6719999999999999 2.13154248046875 0.6794999999999999 Q 2.11504248046875 0.7064999999999999 2.08354248046875 0.7439999999999999 Q 2.0520424804687503 0.7814999999999999 2.01304248046875 0.819 Q 1.97404248046875 0.8564999999999999 1.9365424804687499 0.8835 Q 1.91704248046875 0.8985 1.88704248046875 0.90975 Q 1.85704248046875 0.9209999999999999 1.8270424804687502 0.9209999999999999 M 2.301046875 0.9239999999999999 Q 2.275546875 0.9239999999999999 2.256046875 0.91275 Q 2.236546875 0.9015 2.229046875 0.8699999999999999 Q 2.2245468749999997 0.8534999999999999 2.2245468749999997 0.837 Q 2.2245468749999997 0.7919999999999999 2.247796875 0.74925 Q 2.271046875 0.7064999999999999 2.302546875 0.6697499999999998 Q 2.334046875 0.6329999999999999 2.356546875 0.6074999999999999 Q 2.368546875 0.5954999999999999 2.384296875 0.5759999999999998 Q 2.400046875 0.5564999999999999 2.400046875 0.5369999999999999 Q 2.400046875 0.5249999999999999 2.388046875 0.5137499999999999 Q 2.376046875 0.5025 2.344546875 0.4979999999999999 Q 2.326546875 0.4949999999999999 2.310796875 0.4927499999999999 Q 2.2950468749999997 0.4904999999999999 2.278546875 0.4904999999999999 Q 2.236546875 0.5474999999999999 2.196796875 0.6052499999999998 Q 2.157046875 0.6629999999999999 2.112046875 0.7184999999999999 Q 2.101546875 0.7289999999999999 2.094046875 0.7289999999999999 Q 2.0850468749999997 0.7289999999999999 2.0850468749999997 0.72 Q 2.0850468749999997 0.7109999999999999 2.094046875 0.702 Q 2.175046875 0.603 2.233546875 0.4904999999999999 Q 2.2260468749999998 0.4904999999999999 2.211046875 0.4897499999999999 Q 2.196046875 0.48899999999999993 2.187046875 0.48749999999999993 Q 2.176546875 0.48449999999999993 2.170546875 0.4784999999999999 Q 2.164546875 0.4724999999999999 2.164546875 0.4664999999999999 Q 2.164546875 0.4574999999999999 2.172046875 0.4559999999999999 Q 2.191546875 0.4499999999999999 2.2140468749999997 0.4379999999999999 Q 2.236546875 0.42599999999999993 2.256046875 0.4064999999999999 Q 2.277046875 0.38549999999999995 2.2950468749999997 0.36224999999999985 Q 2.313046875 0.33899999999999986 2.323546875 0.32699999999999996 Q 2.334046875 0.3194999999999999 2.346046875 0.3194999999999999 Q 2.353546875 0.3194999999999999 2.360296875 0.32399999999999995 Q 2.3670468749999998 0.3284999999999999 2.3670468749999998 0.3374999999999999 Q 2.3670468749999998 0.34799999999999986 2.358046875 0.36449999999999994 Q 2.344546875 0.38549999999999995 2.328796875 0.4109999999999999 Q 2.313046875 0.4364999999999999 2.299546875 0.4574999999999999 Q 2.326546875 0.4589999999999999 2.353546875 0.4604999999999999 Q 2.380546875 0.4619999999999999 2.409046875 0.4619999999999999 Q 2.424046875 0.4619999999999999 2.438296875 0.4612499999999999 Q 2.452546875 0.4604999999999999 2.467546875 0.4604999999999999 Q 2.512546875 0.4604999999999999 2.512546875 0.48299999999999993 Q 2.512546875 0.4979999999999999 2.496796875 0.5197499999999999 Q 2.481046875 0.5414999999999999 2.458546875 0.567 Q 2.407546875 0.6255 2.371546875 0.69 Q 2.335546875 0.7545 2.323546875 0.7889999999999999 Q 2.311546875 0.825 2.311546875 0.843 Q 2.311546875 0.8789999999999999 2.340046875 0.8789999999999999 Q 2.3655468749999997 0.8789999999999999 2.4022968749999998 0.8534999999999999 Q 2.439046875 0.828 2.478046875 0.7912499999999999 Q 2.517046875 0.7545 2.548546875 0.71925 Q 2.580046875 0.6839999999999999 2.593546875 0.6659999999999999 Q 2.596546875 0.6615 2.602546875 0.6615 Q 2.608546875 0.6615 2.613046875 0.66675 Q 2.617546875 0.6719999999999999 2.613046875 0.6794999999999999 Q 2.596546875 0.7049999999999998 2.565046875 0.74325 Q 2.533546875 0.7814999999999999 2.494546875 0.819 Q 2.455546875 0.8564999999999999 2.418046875 0.8835 Q 2.398546875 0.8985 2.3647968749999997 0.9112499999999999 Q 2.331046875 0.9239999999999999 2.301046875 0.9239999999999999 M 2.6625856933593752 0.9209999999999999 Q 2.635585693359375 0.9209999999999999 2.613835693359375 0.9089999999999999 Q 2.592085693359375 0.8969999999999999 2.5815856933593753 0.8639999999999999 Q 2.580085693359375 0.8594999999999999 2.579335693359375 0.8549999999999999 Q 2.578585693359375 0.8504999999999999 2.578585693359375 0.8444999999999999 Q 2.578585693359375 0.8144999999999999 2.592085693359375 0.7694999999999999 Q 2.605585693359375 0.7244999999999999 2.625085693359375 0.6824999999999999 Q 2.6160856933593752 0.6944999999999999 2.6040856933593752 0.7117499999999999 Q 2.592085693359375 0.7289999999999999 2.5695856933593753 0.7559999999999999 Q 2.563585693359375 0.7619999999999999 2.556085693359375 0.7619999999999999 Q 2.5455856933593752 0.7619999999999999 2.5455856933593752 0.7499999999999999 Q 2.5455856933593752 0.7409999999999999 2.551585693359375 0.7349999999999999 Q 2.590585693359375 0.6854999999999999 2.621335693359375 0.6464999999999999 Q 2.652085693359375 0.6074999999999999 2.667085693359375 0.5804999999999999 Q 2.667085693359375 0.5774999999999999 2.676085693359375 0.56175 Q 2.685085693359375 0.5459999999999999 2.700085693359375 0.5174999999999998 Q 2.688085693359375 0.5189999999999999 2.679835693359375 0.5197499999999999 Q 2.671585693359375 0.5205 2.665585693359375 0.5205 Q 2.655085693359375 0.5205 2.647585693359375 0.5114999999999998 Q 2.6400856933593753 0.5025 2.646085693359375 0.48899999999999993 Q 2.653585693359375 0.4679999999999999 2.679085693359375 0.4649999999999999 Q 2.704585693359375 0.4619999999999999 2.724085693359375 0.4604999999999999 Q 2.725585693359375 0.4574999999999999 2.730085693359375 0.4574999999999999 Q 2.748085693359375 0.42449999999999993 2.764585693359375 0.3929999999999999 Q 2.7810856933593753 0.36149999999999993 2.792335693359375 0.3404999999999999 Q 2.8035856933593752 0.3194999999999999 2.8035856933593752 0.31799999999999995 Q 2.833585693359375 0.2699999999999999 2.842585693359375 0.25424999999999986 Q 2.8515856933593753 0.23849999999999993 2.866585693359375 0.23549999999999993 Q 2.883085693359375 0.23399999999999987 2.901835693359375 0.23699999999999988 Q 2.9205856933593752 0.23999999999999988 2.926585693359375 0.25049999999999994 Q 2.931085693359375 0.25649999999999995 2.931085693359375 0.26549999999999996 Q 2.931085693359375 0.2789999999999999 2.925085693359375 0.29174999999999995 Q 2.919085693359375 0.3044999999999999 2.913085693359375 0.31199999999999994 Q 2.907085693359375 0.3224999999999999 2.8973356933593752 0.32624999999999993 Q 2.887585693359375 0.32999999999999985 2.880085693359375 0.34499999999999986 Q 2.865085693359375 0.37349999999999994 2.847085693359375 0.4064999999999999 Q 2.829085693359375 0.4394999999999999 2.809585693359375 0.4694999999999999 L 2.8275856933593753 0.4679999999999999 Q 2.863585693359375 0.4649999999999999 2.895835693359375 0.4604999999999999 Q 2.928085693359375 0.4559999999999999 2.970085693359375 0.4574999999999999 Q 2.977585693359375 0.4574999999999999 2.985835693359375 0.4597499999999999 Q 2.994085693359375 0.4619999999999999 2.994085693359375 0.4664999999999999 Q 2.994085693359375 0.4724999999999999 2.955085693359375 0.48299999999999993 Q 2.940085693359375 0.48899999999999993 2.889835693359375 0.4957499999999999 Q 2.839585693359375 0.5025 2.787085693359375 0.5085 Q 2.772085693359375 0.5369999999999999 2.760085693359375 0.55575 Q 2.748085693359375 0.5744999999999999 2.743585693359375 0.5834999999999999 Q 2.7105856933593753 0.6524999999999999 2.684335693359375 0.7087499999999999 Q 2.658085693359375 0.7649999999999999 2.655085693359375 0.8009999999999999 Q 2.653585693359375 0.8069999999999999 2.653585693359375 0.8122499999999999 Q 2.653585693359375 0.8174999999999999 2.653585693359375 0.8234999999999999 Q 2.653585693359375 0.8835 2.692585693359375 0.8835 Q 2.716585693359375 0.8835 2.754085693359375 0.85725 Q 2.7915856933593752 0.831 2.830585693359375 0.79275 Q 2.869585693359375 0.7545 2.901835693359375 0.71925 Q 2.934085693359375 0.6839999999999999 2.946085693359375 0.6659999999999999 Q 2.950585693359375 0.6615 2.955085693359375 0.6615 Q 2.961085693359375 0.6615 2.964835693359375 0.6659999999999999 Q 2.9685856933593753 0.6704999999999999 2.965585693359375 0.6779999999999999 Q 2.952085693359375 0.7034999999999999 2.919835693359375 0.7417499999999999 Q 2.887585693359375 0.7799999999999999 2.847835693359375 0.8182499999999999 Q 2.808085693359375 0.8564999999999999 2.770585693359375 0.8835 Q 2.751085693359375 0.8985 2.7218356933593753 0.90975 Q 2.692585693359375 0.9209999999999999 2.6625856933593752 0.9209999999999999 M 3.1201054687500003 0.9224999999999999 Q 3.09310546875 0.9269999999999999 3.06610546875 0.9269999999999999 Q 3.00010546875 0.9269999999999999 2.9566054687500003 0.8955 Q 2.91310546875 0.8639999999999999 2.91310546875 0.8039999999999999 Q 2.91310546875 0.7679999999999999 2.9341054687500003 0.7169999999999999 Q 2.94910546875 0.6824999999999999 2.98960546875 0.6375 Q 3.03010546875 0.5924999999999999 3.0841054687500002 0.54975 Q 3.13810546875 0.5069999999999999 3.1936054687500004 0.4792499999999999 Q 3.2491054687500003 0.4514999999999999 3.29410546875 0.4514999999999999 Q 3.3106054687500004 0.4514999999999999 3.32410546875 0.4559999999999999 Q 3.34060546875 0.4619999999999999 3.35260546875 0.4724999999999999 Q 3.36460546875 0.48299999999999993 3.36460546875 0.5039999999999999 Q 3.36460546875 0.5085 3.36460546875 0.5129999999999999 Q 3.36460546875 0.5174999999999998 3.36160546875 0.5234999999999999 Q 3.36160546875 0.5279999999999999 3.3548554687500003 0.5429999999999999 Q 3.34810546875 0.5579999999999998 3.33985546875 0.5692499999999999 Q 3.3316054687500003 0.5804999999999999 3.32560546875 0.5744999999999999 Q 3.3196054687500003 0.5699999999999998 3.3196054687500003 0.5624999999999999 Q 3.3196054687500003 0.5549999999999999 3.32335546875 0.5452499999999999 Q 3.32710546875 0.5354999999999999 3.32710546875 0.5279999999999999 Q 3.32710546875 0.5174999999999998 3.3218554687500004 0.5077499999999999 Q 3.31660546875 0.4979999999999999 3.30460546875 0.4979999999999999 Q 3.27610546875 0.4979999999999999 3.23110546875 0.5234999999999999 Q 3.18610546875 0.5489999999999999 3.13885546875 0.5917499999999999 Q 3.09160546875 0.6344999999999998 3.05410546875 0.6854999999999999 Q 3.0166054687500004 0.7364999999999999 3.0016054687500002 0.7874999999999999 Q 2.99710546875 0.7994999999999999 2.99560546875 0.8107499999999999 Q 2.9941054687500004 0.822 2.9941054687500004 0.8324999999999999 Q 2.9941054687500004 0.8654999999999999 3.0158554687500003 0.8797499999999999 Q 3.0376054687500003 0.8939999999999999 3.06910546875 0.8939999999999999 Q 3.10360546875 0.8939999999999999 3.13960546875 0.8835 Q 3.24160546875 0.8534999999999999 3.30535546875 0.8009999999999999 Q 3.36910546875 0.7484999999999999 3.43360546875 0.6659999999999999 Q 3.43960546875 0.6584999999999999 3.44410546875 0.6599999999999999 Q 3.4486054687500003 0.6615 3.4516054687500004 0.6615 Q 3.45610546875 0.6629999999999999 3.45610546875 0.6704999999999999 Q 3.45610546875 0.6734999999999999 3.45460546875 0.6779999999999999 Q 3.4531054687500005 0.6824999999999999 3.4516054687500004 0.6854999999999999 Q 3.38710546875 0.7725 3.3091054687500003 0.8377499999999999 Q 3.23110546875 0.9029999999999999 3.1201054687500003 0.9224999999999999 M 3.8446230468750002 0.9209999999999999 Q 3.819123046875 0.9209999999999999 3.797373046875 0.9089999999999999 Q 3.7756230468750003 0.8969999999999999 3.7651230468750003 0.8639999999999999 Q 3.760623046875 0.8504999999999999 3.760623046875 0.8264999999999999 Q 3.760623046875 0.7934999999999999 3.7696230468750005 0.7529999999999999 Q 3.7786230468750004 0.7124999999999999 3.7891230468750003 0.6839999999999999 Q 3.7816230468750005 0.6869999999999999 3.761373046875 0.7102499999999999 Q 3.7411230468750003 0.7334999999999999 3.7118730468750005 0.7657499999999999 Q 3.6826230468750003 0.7979999999999999 3.6473730468750003 0.8302499999999999 Q 3.6121230468750003 0.8624999999999999 3.574623046875 0.8835 Q 3.537123046875 0.9045 3.5011230468750005 0.9045 Q 3.4771230468750005 0.9045 3.4501230468750004 0.8902499999999999 Q 3.4231230468750002 0.8759999999999999 3.4066230468750005 0.8534999999999999 Q 3.384123046875 0.8234999999999999 3.384123046875 0.7919999999999999 Q 3.384123046875 0.7515 3.4118730468750003 0.708 Q 3.4396230468750004 0.6644999999999999 3.4838730468750003 0.6232499999999999 Q 3.5281230468750002 0.5819999999999999 3.5783730468750004 0.5482499999999999 Q 3.6286230468750005 0.5145 3.6743730468750004 0.4912499999999999 Q 3.7201230468750004 0.4679999999999999 3.748623046875 0.4604999999999999 Q 3.7786230468750004 0.4514999999999999 3.8161230468750005 0.4514999999999999 Q 3.8371230468750004 0.4514999999999999 3.8596230468750004 0.45674999999999993 Q 3.8821230468750003 0.4619999999999999 3.8971230468750004 0.4739999999999999 Q 3.9091230468750005 0.4799999999999999 3.9166230468750003 0.4904999999999999 Q 3.9241230468750006 0.5009999999999999 3.9241230468750006 0.5129999999999999 Q 3.9241230468750006 0.5249999999999999 3.913623046875 0.5205 Q 3.901623046875 0.5025 3.8813730468750003 0.4972499999999999 Q 3.8611230468750004 0.4919999999999999 3.8401230468750005 0.4919999999999999 Q 3.7801230468750004 0.4919999999999999 3.7081230468750004 0.5309999999999999 Q 3.6361230468750003 0.5699999999999998 3.5791230468750004 0.6224999999999998 Q 3.561123046875 0.6375 3.5303730468750003 0.6742499999999999 Q 3.4996230468750005 0.7109999999999999 3.4741230468750004 0.7545 Q 3.4486230468750003 0.7979999999999999 3.4486230468750003 0.8339999999999999 Q 3.4486230468750003 0.8534999999999999 3.4591230468750003 0.8684999999999999 Q 3.4651230468750005 0.8789999999999999 3.478623046875 0.8789999999999999 Q 3.4996230468750005 0.8789999999999999 3.5348730468750005 0.8564999999999999 Q 3.5701230468750005 0.8339999999999999 3.607623046875 0.80175 Q 3.645123046875 0.7694999999999999 3.6758730468750005 0.7394999999999999 Q 3.7066230468750003 0.7094999999999999 3.7201230468750004 0.696 Q 3.7276230468750002 0.6884999999999999 3.749373046875 0.6652499999999999 Q 3.771123046875 0.6419999999999999 3.796623046875 0.615 Q 3.8221230468750003 0.5879999999999999 3.842373046875 0.5684999999999999 Q 3.8626230468750005 0.5489999999999999 3.8686230468750002 0.5489999999999999 Q 3.8761230468750005 0.5489999999999999 3.8933730468750003 0.5527499999999999 Q 3.910623046875 0.5564999999999999 3.9226230468750005 0.5639999999999998 Q 3.934623046875 0.5714999999999999 3.9271230468750002 0.5834999999999999 Q 3.888123046875 0.6404999999999998 3.864873046875 0.7027499999999999 Q 3.841623046875 0.7649999999999999 3.8371230468750004 0.8009999999999999 Q 3.8356230468750003 0.8069999999999999 3.8356230468750003 0.8122499999999999 Q 3.8356230468750003 0.8174999999999999 3.8356230468750003 0.8234999999999999 Q 3.8356230468750003 0.8835 3.8776230468750006 0.8835 Q 3.9001230468750006 0.8835 3.937623046875 0.8564999999999999 Q 3.9751230468750003 0.8294999999999999 4.014123046875 0.7919999999999999 Q 4.053123046875 0.7545 4.0853730468750005 0.71925 Q 4.117623046875 0.6839999999999999 4.129623046875 0.6659999999999999 Q 4.1341230468750005 0.6615 4.138623046875001 0.6615 Q 4.144623046875 0.6615 4.149123046875 0.66675 Q 4.153623046875 0.6719999999999999 4.149123046875 0.6794999999999999 Q 4.1326230468750005 0.7064999999999999 4.101123046875 0.7439999999999999 Q 4.069623046875 0.7814999999999999 4.030623046875 0.819 Q 3.9916230468750005 0.8564999999999999 3.9541230468750004 0.8835 Q 3.934623046875 0.8985 3.9046230468750003 0.90975 Q 3.8746230468750005 0.9209999999999999 3.8446230468750002 0.9209999999999999 M 4.31862744140625 0.9239999999999999 Q 4.29312744140625 0.9239999999999999 4.2736274414062505 0.91275 Q 4.254127441406251 0.9015 4.24662744140625 0.8699999999999999 Q 4.24212744140625 0.8534999999999999 4.24212744140625 0.837 Q 4.24212744140625 0.7919999999999999 4.26537744140625 0.74925 Q 4.28862744140625 0.7064999999999999 4.3201274414062505 0.6697499999999998 Q 4.351627441406251 0.6329999999999999 4.374127441406251 0.6074999999999999 Q 4.38612744140625 0.5954999999999999 4.40187744140625 0.5759999999999998 Q 4.417627441406251 0.5564999999999999 4.417627441406251 0.5369999999999999 Q 4.417627441406251 0.5249999999999999 4.40562744140625 0.5137499999999999 Q 4.393627441406251 0.5025 4.36212744140625 0.4979999999999999 Q 4.3441274414062505 0.4949999999999999 4.328377441406251 0.4927499999999999 Q 4.31262744140625 0.4904999999999999 4.2961274414062505 0.4904999999999999 Q 4.254127441406251 0.5474999999999999 4.21437744140625 0.6052499999999998 Q 4.17462744140625 0.6629999999999999 4.12962744140625 0.7184999999999999 Q 4.119127441406251 0.7289999999999999 4.111627441406251 0.7289999999999999 Q 4.10262744140625 0.7289999999999999 4.10262744140625 0.72 Q 4.10262744140625 0.7109999999999999 4.111627441406251 0.702 Q 4.19262744140625 0.603 4.2511274414062505 0.4904999999999999 Q 4.24362744140625 0.4904999999999999 4.228627441406251 0.4897499999999999 Q 4.21362744140625 0.48899999999999993 4.2046274414062506 0.48749999999999993 Q 4.19412744140625 0.48449999999999993 4.188127441406251 0.4784999999999999 Q 4.182127441406251 0.4724999999999999 4.182127441406251 0.4664999999999999 Q 4.182127441406251 0.4574999999999999 4.18962744140625 0.4559999999999999 Q 4.209127441406251 0.4499999999999999 4.231627441406251 0.4379999999999999 Q 4.254127441406251 0.42599999999999993 4.2736274414062505 0.4064999999999999 Q 4.29462744140625 0.38549999999999995 4.31262744140625 0.36224999999999985 Q 4.33062744140625 0.33899999999999986 4.34112744140625 0.32699999999999996 Q 4.351627441406251 0.3194999999999999 4.36362744140625 0.3194999999999999 Q 4.371127441406251 0.3194999999999999 4.37787744140625 0.32399999999999995 Q 4.38462744140625 0.3284999999999999 4.38462744140625 0.3374999999999999 Q 4.38462744140625 0.34799999999999986 4.375627441406251 0.36449999999999994 Q 4.36212744140625 0.38549999999999995 4.346377441406251 0.4109999999999999 Q 4.33062744140625 0.4364999999999999 4.31712744140625 0.4574999999999999 Q 4.3441274414062505 0.4589999999999999 4.371127441406251 0.4604999999999999 Q 4.398127441406251 0.4619999999999999 4.42662744140625 0.4619999999999999 Q 4.441627441406251 0.4619999999999999 4.45587744140625 0.4612499999999999 Q 4.470127441406251 0.4604999999999999 4.4851274414062505 0.4604999999999999 Q 4.5301274414062505 0.4604999999999999 4.5301274414062505 0.48299999999999993 Q 4.5301274414062505 0.4979999999999999 4.514377441406251 0.5197499999999999 Q 4.49862744140625 0.5414999999999999 4.47612744140625 0.567 Q 4.42512744140625 0.6255 4.38912744140625 0.69 Q 4.353127441406251 0.7545 4.34112744140625 0.7889999999999999 Q 4.329127441406251 0.825 4.329127441406251 0.843 Q 4.329127441406251 0.8789999999999999 4.35762744140625 0.8789999999999999 Q 4.38312744140625 0.8789999999999999 4.419877441406251 0.8534999999999999 Q 4.45662744140625 0.828 4.49562744140625 0.7912499999999999 Q 4.534627441406251 0.7545 4.56612744140625 0.71925 Q 4.59762744140625 0.6839999999999999 4.61112744140625 0.6659999999999999 Q 4.61412744140625 0.6615 4.62012744140625 0.6615 Q 4.6261274414062505 0.6615 4.630627441406251 0.66675 Q 4.635127441406251 0.6719999999999999 4.630627441406251 0.6794999999999999 Q 4.61412744140625 0.7049999999999998 4.582627441406251 0.74325 Q 4.55112744140625 0.7814999999999999 4.512127441406251 0.819 Q 4.47312744140625 0.8564999999999999 4.43562744140625 0.8835 Q 4.416127441406251 0.8985 4.38237744140625 0.9112499999999999 Q 4.348627441406251 0.9239999999999999 4.31862744140625 0.9239999999999999 M 5.008666259765625 1.0695 Q 4.969666259765625 1.0635 4.953166259765625 1.032 Q 4.936666259765625 1.0005 4.936666259765625 0.954 Q 4.936666259765625 0.8985 4.952416259765625 0.8339999999999999 Q 4.968166259765625 0.7694999999999999 4.989166259765625 0.7124999999999999 Q 5.010166259765625 0.6555 5.022166259765625 0.6255 Q 4.987666259765625 0.6659999999999999 4.943416259765625 0.714 Q 4.899166259765625 0.7619999999999999 4.851166259765625 0.8054999999999999 Q 4.803166259765625 0.8489999999999999 4.758916259765625 0.8767499999999999 Q 4.714666259765625 0.9045 4.681666259765625 0.9045 Q 4.657666259765625 0.9045 4.630666259765625 0.8902499999999999 Q 4.6036662597656255 0.8759999999999999 4.587166259765625 0.8534999999999999 Q 4.564666259765625 0.8234999999999999 4.564666259765625 0.7919999999999999 Q 4.564666259765625 0.7515 4.592416259765625 0.708 Q 4.620166259765625 0.6644999999999999 4.664416259765625 0.6232499999999999 Q 4.708666259765625 0.5819999999999999 4.758916259765625 0.5482499999999999 Q 4.809166259765625 0.5145 4.854916259765625 0.4912499999999999 Q 4.900666259765625 0.4679999999999999 4.929166259765625 0.4604999999999999 Q 4.944166259765625 0.4574999999999999 4.960666259765625 0.4544999999999999 Q 4.977166259765625 0.4514999999999999 4.995166259765625 0.4514999999999999 Q 5.017666259765625 0.4514999999999999 5.040166259765625 0.45674999999999993 Q 5.062666259765625 0.4619999999999999 5.077666259765625 0.4739999999999999 L 5.083666259765625 0.4784999999999999 Q 5.1196662597656255 0.3959999999999999 5.163166259765625 0.3112499999999999 Q 5.206666259765625 0.22649999999999992 5.256166259765625 0.15599999999999992 Q 5.3056662597656254 0.08549999999999991 5.361166259765625 0.042749999999999844 Q 5.416666259765625 -1.1102230246251565e-16 5.476666259765625 -1.1102230246251565e-16 Q 5.484166259765625 -1.1102230246251565e-16 5.491666259765625 0.0007499999999999174 Q 5.499166259765625 0.0014999999999999458 5.505166259765625 0.0029999999999998916 Q 5.542666259765625 0.010499999999999843 5.558416259765625 0.029249999999999887 Q 5.574166259765625 0.04799999999999993 5.574166259765625 0.0734999999999999 Q 5.574166259765625 0.09149999999999991 5.567416259765626 0.1117499999999999 Q 5.560666259765625 0.1319999999999999 5.548666259765625 0.15149999999999986 Q 5.515666259765625 0.20999999999999985 5.462416259765625 0.2669999999999999 Q 5.409166259765625 0.32399999999999995 5.346166259765625 0.37724999999999986 Q 5.2831662597656255 0.4304999999999999 5.220916259765625 0.4799999999999999 Q 5.158666259765625 0.5294999999999999 5.107666259765625 0.573 Q 5.085166259765625 0.6255 5.062666259765625 0.696 Q 5.040166259765625 0.7665 5.0251662597656255 0.816 Q 5.016166259765625 0.8519999999999999 5.010916259765625 0.8835 Q 5.005666259765625 0.9149999999999999 5.005666259765625 0.942 Q 5.005666259765625 0.9914999999999999 5.023666259765625 1.023 Q 5.038666259765625 1.047 5.061166259765625 1.047 Q 5.077666259765625 1.047 5.091166259765625 1.035 Q 5.0971662597656255 1.032 5.102416259765625 1.0274999999999999 Q 5.107666259765625 1.023 5.115166259765625 1.0185 Q 5.124166259765625 1.014 5.130166259765625 1.014 Q 5.140666259765625 1.014 5.131666259765625 1.0305 Q 5.127166259765625 1.035 5.121166259765625 1.04175 Q 5.115166259765625 1.0485 5.107666259765625 1.0559999999999998 Q 5.0971662597656255 1.0635 5.076166259765625 1.0679999999999998 Q 5.055166259765625 1.0725 5.034166259765625 1.0725 Q 5.028166259765625 1.0725 5.021416259765625 1.07175 Q 5.014666259765625 1.071 5.008666259765625 1.0695 M 5.152666259765625 0.48749999999999993 Q 5.2126662597656255 0.4469999999999999 5.2831662597656255 0.38624999999999987 Q 5.3536662597656255 0.3254999999999999 5.415166259765625 0.2557499999999999 Q 5.476666259765625 0.18599999999999994 5.509666259765625 0.12299999999999989 Q 5.529166259765625 0.08699999999999986 5.529166259765625 0.06599999999999995 Q 5.529166259765625 0.04049999999999987 5.506666259765625 0.04049999999999987 Q 5.485666259765625 0.04049999999999987 5.451166259765625 0.06449999999999989 Q 5.350666259765625 0.14249999999999985 5.281666259765625 0.24974999999999992 Q 5.2126662597656255 0.3569999999999999 5.152666259765625 0.48749999999999993 M 4.639666259765625 0.8684999999999999 Q 4.647166259765625 0.8775 4.659166259765625 0.8775 Q 4.681666259765625 0.8775 4.712416259765625 0.8579999999999999 Q 4.7431662597656254 0.8384999999999999 4.753666259765625 0.828 Q 4.830166259765625 0.7665 4.9074162597656255 0.6952499999999999 Q 4.984666259765625 0.6239999999999999 5.052166259765626 0.5519999999999999 Q 5.058166259765625 0.5385 5.062666259765625 0.5257499999999999 Q 5.067166259765625 0.5129999999999999 5.073166259765625 0.5009999999999999 Q 5.0506662597656256 0.4919999999999999 5.020666259765625 0.4919999999999999 Q 4.960666259765625 0.4919999999999999 4.888666259765625 0.5309999999999999 Q 4.816666259765626 0.5699999999999998 4.759666259765625 0.6224999999999998 Q 4.741666259765625 0.6375 4.710916259765625 0.6742499999999999 Q 4.680166259765625 0.7109999999999999 4.654666259765625 0.7545 Q 4.629166259765625 0.7979999999999999 4.629166259765625 0.8339999999999999 Q 4.629166259765625 0.8534999999999999 4.639666259765625 0.8684999999999999" fill="#0e1425" fill-rule="nonzero"></path></g><g><path d=" M 0.12140625 1.769653125 Q 0.07593749999999999 1.769653125 0.049687499999999996 1.7419968750000001 Q 0.0234375 1.7143406250000002 0.0234375 1.668871875 Q 0.0234375 1.633715625 0.037734375 1.6067625 Q 0.05203125 1.5798093750000002 0.07640625 1.564575 Q 0.10078125 1.5493406250000001 0.13125 1.5493406250000001 Q 0.15 1.5493406250000001 0.1678125 1.5556687500000002 Q 0.18562499999999998 1.5619968750000002 0.195 1.5723093750000001 Q 0.20249999999999999 1.581215625 0.20249999999999999 1.5863718750000002 Q 0.20249999999999999 1.592934375 0.19640625 1.5976218750000002 L 0.17859375 1.612621875 L 0.17531249999999998 1.612621875 L 0.159375 1.5910593750000002 Q 0.15234375 1.581684375 0.141796875 1.575825 Q 0.13125 1.569965625 0.11578125 1.569965625 Q 0.09 1.569965625 0.07523437499999999 1.5903562500000001 Q 0.060468749999999995 1.610746875 0.060468749999999995 1.647309375 Q 0.060468749999999995 1.669809375 0.06796875 1.6897312500000001 Q 0.07546875 1.709653125 0.093046875 1.722075 Q 0.110625 1.734496875 0.1415625 1.734496875 Q 0.16734374999999999 1.734496875 0.20203125 1.715746875 L 0.2034375 1.715746875 L 0.2034375 1.7204343750000002 Q 0.19265625 1.740590625 0.171328125 1.7551218750000002 Q 0.15 1.769653125 0.12140625 1.769653125 M 0.3557830810546875 1.769653125 Q 0.3248455810546875 1.769653125 0.30164245605468754 1.7551218750000002 Q 0.2784393310546875 1.740590625 0.2655487060546875 1.715746875 Q 0.2526580810546875 1.6909031250000002 0.2526580810546875 1.659496875 Q 0.2526580810546875 1.628090625 0.2655487060546875 1.6032468750000002 Q 0.2784393310546875 1.5784031250000001 0.30164245605468754 1.563871875 Q 0.3248455810546875 1.5493406250000001 0.3557830810546875 1.5493406250000001 Q 0.38672058105468754 1.5493406250000001 0.40992370605468753 1.563871875 Q 0.4331268310546875 1.5784031250000001 0.4460174560546875 1.6032468750000002 Q 0.4589080810546875 1.628090625 0.4589080810546875 1.659496875 Q 0.4589080810546875 1.6909031250000002 0.4460174560546875 1.715746875 Q 0.4331268310546875 1.740590625 0.40992370605468753 1.7551218750000002 Q 0.38672058105468754 1.769653125 0.3557830810546875 1.769653125 M 0.3623455810546875 1.7494968750000002 Q 0.3810955810546875 1.7494968750000002 0.3932830810546875 1.7377781250000002 Q 0.4054705810546875 1.7260593750000002 0.41109558105468746 1.7075437500000001 Q 0.4167205810546875 1.689028125 0.4167205810546875 1.668871875 Q 0.4167205810546875 1.6440281250000002 0.40992370605468753 1.6210593750000002 Q 0.4031268310546875 1.5980906250000002 0.3883612060546875 1.583559375 Q 0.3735955810546875 1.569028125 0.3501580810546875 1.569028125 Q 0.33093933105468754 1.569028125 0.3187518310546875 1.580746875 Q 0.3065643310546875 1.592465625 0.3007049560546875 1.610746875 Q 0.2948455810546875 1.629028125 0.2948455810546875 1.6496531250000002 Q 0.2948455810546875 1.674496875 0.3018768310546875 1.697465625 Q 0.3089080810546875 1.7204343750000002 0.3239080810546875 1.734965625 Q 0.3389080810546875 1.7494968750000002 0.3623455810546875 1.7494968750000002 M 0.5095227813720703 1.764965625 L 0.5095227813720703 1.757465625 L 0.5390540313720703 1.7424656250000001 L 0.5390540313720703 1.6027781250000002 L 0.5109290313720704 1.5784031250000001 L 0.5109290313720704 1.575121875 L 0.5690540313720703 1.5493406250000001 L 0.5718665313720703 1.5493406250000001 L 0.5760852813720704 1.5840281250000001 L 0.5784290313720704 1.5840281250000001 Q 0.5962415313720704 1.5662156250000001 0.6128821563720703 1.557778125 Q 0.6295227813720703 1.5493406250000001 0.6496790313720704 1.5493406250000001 Q 0.6773352813720703 1.5493406250000001 0.6949134063720703 1.56316875 Q 0.7124915313720703 1.576996875 0.7124915313720703 1.604184375 L 0.7124915313720703 1.7424656250000001 L 0.7420227813720703 1.757465625 L 0.7420227813720703 1.764965625 L 0.6417102813720703 1.764965625 L 0.6417102813720703 1.757465625 L 0.6749915313720704 1.7424656250000001 L 0.6749915313720704 1.6262156250000002 Q 0.6749915313720704 1.605590625 0.6621009063720703 1.594809375 Q 0.6492102813720704 1.5840281250000001 0.6285852813720704 1.5840281250000001 Q 0.6159290313720703 1.5840281250000001 0.6006946563720703 1.588246875 Q 0.5854602813720703 1.592465625 0.5765540313720703 1.600434375 L 0.5765540313720703 1.7424656250000001 L 0.6098352813720703 1.757465625 L 0.6098352813720703 1.764965625 L 0.5095227813720703 1.764965625 M 0.7870088195800782 1.764965625 L 0.7870088195800782 1.757465625 L 0.8165400695800782 1.7424656250000001 L 0.8165400695800782 1.6027781250000002 L 0.7884150695800782 1.5784031250000001 L 0.7884150695800782 1.575121875 L 0.8465400695800782 1.5493406250000001 L 0.8493525695800782 1.5493406250000001 L 0.8535713195800783 1.5840281250000001 L 0.8559150695800782 1.5840281250000001 Q 0.8737275695800782 1.5662156250000001 0.8903681945800782 1.557778125 Q 0.9070088195800782 1.5493406250000001 0.9271650695800782 1.5493406250000001 Q 0.9548213195800782 1.5493406250000001 0.9723994445800782 1.56316875 Q 0.9899775695800782 1.576996875 0.9899775695800782 1.604184375 L 0.9899775695800782 1.7424656250000001 L 1.019508819580078 1.757465625 L 1.019508819580078 1.764965625 L 0.9191963195800782 1.764965625 L 0.9191963195800782 1.757465625 L 0.9524775695800782 1.7424656250000001 L 0.9524775695800782 1.6262156250000002 Q 0.9524775695800782 1.605590625 0.9395869445800782 1.594809375 Q 0.9266963195800781 1.5840281250000001 0.9060713195800782 1.5840281250000001 Q 0.8934150695800782 1.5840281250000001 0.8781806945800782 1.588246875 Q 0.8629463195800782 1.592465625 0.8540400695800782 1.600434375 L 0.8540400695800782 1.7424656250000001 L 0.8873213195800782 1.757465625 L 0.8873213195800782 1.764965625 L 0.7870088195800782 1.764965625 M 1.163401107788086 1.769653125 Q 1.117932357788086 1.769653125 1.0916823577880859 1.7419968750000001 Q 1.065432357788086 1.7143406250000002 1.065432357788086 1.668871875 Q 1.065432357788086 1.633715625 1.079260482788086 1.6067625 Q 1.093088607788086 1.5798093750000002 1.115822982788086 1.564575 Q 1.1385573577880859 1.5493406250000001 1.165276107788086 1.5493406250000001 Q 1.202307357788086 1.5493406250000001 1.223635482788086 1.575121875 Q 1.244963607788086 1.600903125 1.244963607788086 1.6491843750000001 L 1.242619857788086 1.651528125 L 1.102463607788086 1.651528125 Q 1.102932357788086 1.6730906250000002 1.110901107788086 1.692075 Q 1.118869857788086 1.711059375 1.136447982788086 1.722778125 Q 1.154026107788086 1.734496875 1.183557357788086 1.734496875 Q 1.2093386077880859 1.734496875 1.2440261077880859 1.715746875 L 1.245432357788086 1.715746875 L 1.245432357788086 1.7204343750000002 Q 1.234651107788086 1.740590625 1.213322982788086 1.7551218750000002 Q 1.191994857788086 1.769653125 1.163401107788086 1.769653125 M 1.157776107788086 1.569965625 Q 1.135276107788086 1.569965625 1.1209792327880859 1.5856687500000002 Q 1.106682357788086 1.6013718750000001 1.1034011077880859 1.629965625 L 1.2093386077880859 1.629965625 Q 1.204182357788086 1.5980906250000002 1.1912917327880859 1.5840281250000001 Q 1.178401107788086 1.569965625 1.157776107788086 1.569965625 M 1.3949677276611328 1.769653125 Q 1.3494989776611328 1.769653125 1.323248977661133 1.7419968750000001 Q 1.2969989776611328 1.7143406250000002 1.2969989776611328 1.668871875 Q 1.2969989776611328 1.633715625 1.311295852661133 1.6067625 Q 1.3255927276611328 1.5798093750000002 1.3499677276611328 1.564575 Q 1.3743427276611329 1.5493406250000001 1.404811477661133 1.5493406250000001 Q 1.4235614776611327 1.5493406250000001 1.4413739776611327 1.5556687500000002 Q 1.4591864776611327 1.5619968750000002 1.4685614776611329 1.5723093750000001 Q 1.4760614776611327 1.581215625 1.4760614776611327 1.5863718750000002 Q 1.4760614776611327 1.592934375 1.4699677276611327 1.5976218750000002 L 1.452155227661133 1.612621875 L 1.4488739776611328 1.612621875 L 1.4329364776611329 1.5910593750000002 Q 1.4259052276611328 1.581684375 1.4153583526611329 1.575825 Q 1.404811477661133 1.569965625 1.3893427276611328 1.569965625 Q 1.363561477661133 1.569965625 1.3487958526611328 1.5903562500000001 Q 1.3340302276611329 1.610746875 1.3340302276611329 1.647309375 Q 1.3340302276611329 1.669809375 1.3415302276611327 1.6897312500000001 Q 1.3490302276611328 1.709653125 1.3666083526611328 1.722075 Q 1.3841864776611328 1.734496875 1.4151239776611328 1.734496875 Q 1.4409052276611327 1.734496875 1.475592727661133 1.715746875 L 1.4769989776611328 1.715746875 L 1.4769989776611328 1.7204343750000002 Q 1.4662177276611328 1.740590625 1.4448896026611329 1.7551218750000002 Q 1.4235614776611327 1.769653125 1.3949677276611328 1.769653125 M 1.6002820587158202 1.769653125 Q 1.5796570587158203 1.769653125 1.5646570587158202 1.757465625 Q 1.5496570587158203 1.745278125 1.5496570587158203 1.723246875 L 1.5496570587158203 1.576059375 L 1.5112195587158204 1.576059375 L 1.5112195587158204 1.5732468750000002 L 1.5510633087158203 1.554028125 L 1.5843445587158203 1.5024656250000001 L 1.5871570587158204 1.5024656250000001 L 1.5871570587158204 1.554028125 L 1.6490320587158203 1.554028125 L 1.6490320587158203 1.576059375 L 1.5871570587158204 1.576059375 L 1.5871570587158204 1.7152781250000002 Q 1.5871570587158204 1.727465625 1.5979383087158203 1.733090625 Q 1.6087195587158203 1.738715625 1.6232508087158202 1.738715625 Q 1.6321570587158203 1.738715625 1.6398914337158204 1.7377781250000002 Q 1.6476258087158202 1.7368406250000001 1.6532508087158202 1.735434375 L 1.6546570587158203 1.735434375 L 1.6546570587158203 1.740121875 Q 1.6499695587158203 1.750903125 1.6361414337158202 1.7602781250000001 Q 1.6223133087158204 1.769653125 1.6002820587158202 1.769653125 M 1.8177838897705076 1.8727781250000002 L 1.8177838897705076 1.8652781250000001 L 1.8473151397705077 1.850278125 L 1.8473151397705077 1.6027781250000002 L 1.8191901397705077 1.5784031250000001 L 1.8191901397705077 1.575121875 L 1.8773151397705077 1.5493406250000001 L 1.8801276397705076 1.5493406250000001 L 1.8838776397705077 1.5779343750000001 L 1.8871588897705076 1.5779343750000001 Q 1.9049713897705076 1.5629343750000002 1.9213776397705078 1.5561375000000002 Q 1.9377838897705078 1.5493406250000001 1.9570026397705076 1.5493406250000001 Q 1.9809088897705076 1.5493406250000001 1.9991901397705076 1.5615281250000002 Q 2.017471389770508 1.5737156250000002 2.0280182647705076 1.5959812500000001 Q 2.038565139770508 1.618246875 2.038565139770508 1.6491843750000001 Q 2.038565139770508 1.687621875 2.0242682647705075 1.7145750000000002 Q 2.0099713897705076 1.741528125 1.9855963897705076 1.7555906250000002 Q 1.9612213897705078 1.769653125 1.9321588897705078 1.769653125 Q 1.9059088897705077 1.769653125 1.8848151397705077 1.764965625 L 1.8848151397705077 1.850278125 L 1.9180963897705077 1.8652781250000001 L 1.9180963897705077 1.8727781250000002 L 1.8177838897705076 1.8727781250000002 M 1.9312213897705077 1.581684375 Q 1.9199713897705077 1.581684375 1.9080182647705077 1.5852000000000002 Q 1.8960651397705077 1.588715625 1.8848151397705077 1.5957468750000001 L 1.8848151397705077 1.727465625 Q 1.8988776397705076 1.738715625 1.9134088897705077 1.7429343750000001 Q 1.9279401397705076 1.747153125 1.9457526397705076 1.747153125 Q 1.9682526397705078 1.747153125 1.9846588897705078 1.72816875 Q 2.0010651397705077 1.7091843750000002 2.0010651397705077 1.664653125 Q 2.0010651397705077 1.635590625 1.9916901397705078 1.617309375 Q 1.9823151397705077 1.599028125 1.9663776397705077 1.5903562500000001 Q 1.9504401397705076 1.581684375 1.9312213897705077 1.581684375 M 2.189512710571289 1.769653125 Q 2.144043960571289 1.769653125 2.117793960571289 1.7419968750000001 Q 2.091543960571289 1.7143406250000002 2.091543960571289 1.668871875 Q 2.091543960571289 1.633715625 2.1053720855712887 1.6067625 Q 2.119200210571289 1.5798093750000002 2.141934585571289 1.564575 Q 2.164668960571289 1.5493406250000001 2.1913877105712887 1.5493406250000001 Q 2.2284189605712887 1.5493406250000001 2.249747085571289 1.575121875 Q 2.271075210571289 1.600903125 2.271075210571289 1.6491843750000001 L 2.268731460571289 1.651528125 L 2.128575210571289 1.651528125 Q 2.129043960571289 1.6730906250000002 2.137012710571289 1.692075 Q 2.1449814605712887 1.711059375 2.1625595855712887 1.722778125 Q 2.1801377105712887 1.734496875 2.209668960571289 1.734496875 Q 2.235450210571289 1.734496875 2.270137710571289 1.715746875 L 2.271543960571289 1.715746875 L 2.271543960571289 1.7204343750000002 Q 2.260762710571289 1.740590625 2.239434585571289 1.7551218750000002 Q 2.218106460571289 1.769653125 2.189512710571289 1.769653125 M 2.183887710571289 1.569965625 Q 2.161387710571289 1.569965625 2.147090835571289 1.5856687500000002 Q 2.1327939605712887 1.6013718750000001 2.129512710571289 1.629965625 L 2.235450210571289 1.629965625 Q 2.230293960571289 1.5980906250000002 2.217403335571289 1.5840281250000001 Q 2.2045127105712887 1.569965625 2.183887710571289 1.569965625 M 2.426235580444336 1.769653125 Q 2.395298080444336 1.769653125 2.372094955444336 1.7551218750000002 Q 2.348891830444336 1.740590625 2.3360012054443358 1.715746875 Q 2.323110580444336 1.6909031250000002 2.323110580444336 1.659496875 Q 2.323110580444336 1.628090625 2.3360012054443358 1.6032468750000002 Q 2.348891830444336 1.5784031250000001 2.372094955444336 1.563871875 Q 2.395298080444336 1.5493406250000001 2.426235580444336 1.5493406250000001 Q 2.457173080444336 1.5493406250000001 2.480376205444336 1.563871875 Q 2.503579330444336 1.5784031250000001 2.516469955444336 1.6032468750000002 Q 2.5293605804443358 1.628090625 2.5293605804443358 1.659496875 Q 2.5293605804443358 1.6909031250000002 2.516469955444336 1.715746875 Q 2.503579330444336 1.740590625 2.480376205444336 1.7551218750000002 Q 2.457173080444336 1.769653125 2.426235580444336 1.769653125 M 2.432798080444336 1.7494968750000002 Q 2.451548080444336 1.7494968750000002 2.463735580444336 1.7377781250000002 Q 2.475923080444336 1.7260593750000002 2.4815480804443357 1.7075437500000001 Q 2.487173080444336 1.689028125 2.487173080444336 1.668871875 Q 2.487173080444336 1.6440281250000002 2.480376205444336 1.6210593750000002 Q 2.473579330444336 1.5980906250000002 2.458813705444336 1.583559375 Q 2.444048080444336 1.569028125 2.420610580444336 1.569028125 Q 2.401391830444336 1.569028125 2.3892043304443358 1.580746875 Q 2.3770168304443358 1.592465625 2.3711574554443358 1.610746875 Q 2.3652980804443358 1.629028125 2.3652980804443358 1.6496531250000002 Q 2.3652980804443358 1.674496875 2.372329330444336 1.697465625 Q 2.379360580444336 1.7204343750000002 2.394360580444336 1.734965625 Q 2.409360580444336 1.7494968750000002 2.432798080444336 1.7494968750000002 M 2.579975280761719 1.8727781250000002 L 2.579975280761719 1.8652781250000001 L 2.609506530761719 1.850278125 L 2.609506530761719 1.6027781250000002 L 2.581381530761719 1.5784031250000001 L 2.581381530761719 1.575121875 L 2.639506530761719 1.5493406250000001 L 2.642319030761719 1.5493406250000001 L 2.6460690307617187 1.5779343750000001 L 2.649350280761719 1.5779343750000001 Q 2.667162780761719 1.5629343750000002 2.683569030761719 1.5561375000000002 Q 2.699975280761719 1.5493406250000001 2.719194030761719 1.5493406250000001 Q 2.743100280761719 1.5493406250000001 2.761381530761719 1.5615281250000002 Q 2.779662780761719 1.5737156250000002 2.790209655761719 1.5959812500000001 Q 2.800756530761719 1.618246875 2.800756530761719 1.6491843750000001 Q 2.800756530761719 1.687621875 2.786459655761719 1.7145750000000002 Q 2.772162780761719 1.741528125 2.747787780761719 1.7555906250000002 Q 2.723412780761719 1.769653125 2.694350280761719 1.769653125 Q 2.668100280761719 1.769653125 2.6470065307617188 1.764965625 L 2.6470065307617188 1.850278125 L 2.680287780761719 1.8652781250000001 L 2.680287780761719 1.8727781250000002 L 2.579975280761719 1.8727781250000002 M 2.6934127807617188 1.581684375 Q 2.6821627807617188 1.581684375 2.670209655761719 1.5852000000000002 Q 2.6582565307617188 1.588715625 2.6470065307617188 1.5957468750000001 L 2.6470065307617188 1.727465625 Q 2.661069030761719 1.738715625 2.675600280761719 1.7429343750000001 Q 2.690131530761719 1.747153125 2.707944030761719 1.747153125 Q 2.730444030761719 1.747153125 2.746850280761719 1.72816875 Q 2.7632565307617187 1.7091843750000002 2.7632565307617187 1.664653125 Q 2.7632565307617187 1.635590625 2.753881530761719 1.617309375 Q 2.744506530761719 1.599028125 2.7285690307617188 1.5903562500000001 Q 2.712631530761719 1.581684375 2.6934127807617188 1.581684375 M 2.848576812744141 1.764965625 L 2.848576812744141 1.757465625 L 2.878108062744141 1.7424656250000001 L 2.878108062744141 1.4668406250000001 L 2.849983062744141 1.442465625 L 2.849983062744141 1.4391843750000002 L 2.912795562744141 1.413403125 L 2.915608062744141 1.413403125 L 2.915608062744141 1.7424656250000001 L 2.945139312744141 1.757465625 L 2.945139312744141 1.764965625 L 2.848576812744141 1.764965625 M 3.0918610382080085 1.769653125 Q 3.0463922882080086 1.769653125 3.0201422882080085 1.7419968750000001 Q 2.9938922882080083 1.7143406250000002 2.9938922882080083 1.668871875 Q 2.9938922882080083 1.633715625 3.007720413208008 1.6067625 Q 3.0215485382080085 1.5798093750000002 3.0442829132080083 1.564575 Q 3.0670172882080085 1.5493406250000001 3.093736038208008 1.5493406250000001 Q 3.130767288208008 1.5493406250000001 3.1520954132080083 1.575121875 Q 3.1734235382080085 1.600903125 3.1734235382080085 1.6491843750000001 L 3.1710797882080084 1.651528125 L 3.0309235382080084 1.651528125 Q 3.0313922882080084 1.6730906250000002 3.0393610382080083 1.692075 Q 3.047329788208008 1.711059375 3.064907913208008 1.722778125 Q 3.082486038208008 1.734496875 3.1120172882080084 1.734496875 Q 3.1377985382080085 1.734496875 3.1724860382080085 1.715746875 L 3.1738922882080085 1.715746875 L 3.1738922882080085 1.7204343750000002 Q 3.1631110382080085 1.740590625 3.1417829132080084 1.7551218750000002 Q 3.1204547882080083 1.769653125 3.0918610382080085 1.769653125 M 3.0862360382080083 1.569965625 Q 3.0637360382080083 1.569965625 3.0494391632080085 1.5856687500000002 Q 3.035142288208008 1.6013718750000001 3.0318610382080085 1.629965625 L 3.1377985382080085 1.629965625 Q 3.1326422882080083 1.5980906250000002 3.1197516632080085 1.5840281250000001 Q 3.106861038208008 1.569965625 3.0862360382080083 1.569965625 M 3.3960839080810556 1.4926218750000002 Q 3.3838964080810556 1.4926218750000002 3.3759276580810558 1.4844187500000001 Q 3.3679589080810555 1.476215625 3.3679589080810555 1.464496875 Q 3.3679589080810555 1.452309375 3.3759276580810558 1.4443406250000002 Q 3.3838964080810556 1.436371875 3.3960839080810556 1.436371875 Q 3.4082714080810557 1.436371875 3.4162401580810555 1.4443406250000002 Q 3.4242089080810554 1.452309375 3.4242089080810554 1.464496875 Q 3.4242089080810554 1.476215625 3.4162401580810555 1.4844187500000001 Q 3.4082714080810557 1.4926218750000002 3.3960839080810556 1.4926218750000002 M 3.3492089080810556 1.764965625 L 3.3492089080810556 1.757465625 L 3.3787401580810554 1.7424656250000001 L 3.3787401580810554 1.6027781250000002 L 3.3506151580810557 1.5784031250000001 L 3.3506151580810557 1.575121875 L 3.4134276580810554 1.5493406250000001 L 3.4162401580810555 1.5493406250000001 L 3.4162401580810555 1.7424656250000001 L 3.4457714080810558 1.757465625 L 3.4457714080810558 1.764965625 L 3.3492089080810556 1.764965625 M 3.497797164916993 1.764965625 L 3.497797164916993 1.757465625 L 3.5273284149169934 1.7424656250000001 L 3.5273284149169934 1.6027781250000002 L 3.4992034149169933 1.5784031250000001 L 3.4992034149169933 1.575121875 L 3.5573284149169933 1.5493406250000001 L 3.5601409149169934 1.5493406250000001 L 3.564359664916993 1.5840281250000001 L 3.566703414916993 1.5840281250000001 Q 3.5845159149169934 1.5662156250000001 3.6011565399169934 1.557778125 Q 3.6177971649169933 1.5493406250000001 3.637953414916993 1.5493406250000001 Q 3.6656096649169934 1.5493406250000001 3.6831877899169934 1.56316875 Q 3.7007659149169934 1.576996875 3.7007659149169934 1.604184375 L 3.7007659149169934 1.7424656250000001 L 3.730297164916993 1.757465625 L 3.730297164916993 1.764965625 L 3.6299846649169933 1.764965625 L 3.6299846649169933 1.757465625 L 3.6632659149169933 1.7424656250000001 L 3.6632659149169933 1.6262156250000002 Q 3.6632659149169933 1.605590625 3.6503752899169934 1.594809375 Q 3.637484664916993 1.5840281250000001 3.6168596649169933 1.5840281250000001 Q 3.6042034149169933 1.5840281250000001 3.5889690399169933 1.588246875 Q 3.5737346649169934 1.592465625 3.564828414916993 1.600434375 L 3.564828414916993 1.7424656250000001 L 3.5981096649169935 1.757465625 L 3.5981096649169935 1.764965625 L 3.497797164916993 1.764965625 M 4.001220703125002 1.769653125 Q 3.9702832031250015 1.769653125 3.9470800781250013 1.7551218750000002 Q 3.9238769531250015 1.740590625 3.9109863281250012 1.715746875 Q 3.8980957031250014 1.6909031250000002 3.8980957031250014 1.659496875 Q 3.8980957031250014 1.628090625 3.9109863281250012 1.6032468750000002 Q 3.9238769531250015 1.5784031250000001 3.9470800781250013 1.563871875 Q 3.9702832031250015 1.5493406250000001 4.001220703125002 1.5493406250000001 Q 4.032158203125001 1.5493406250000001 4.055361328125001 1.563871875 Q 4.078564453125002 1.5784031250000001 4.091455078125001 1.6032468750000002 Q 4.104345703125001 1.628090625 4.104345703125001 1.659496875 Q 4.104345703125001 1.6909031250000002 4.091455078125001 1.715746875 Q 4.078564453125002 1.740590625 4.055361328125001 1.7551218750000002 Q 4.032158203125001 1.769653125 4.001220703125002 1.769653125 M 4.007783203125001 1.7494968750000002 Q 4.026533203125002 1.7494968750000002 4.038720703125001 1.7377781250000002 Q 4.050908203125001 1.7260593750000002 4.056533203125001 1.7075437500000001 Q 4.062158203125001 1.689028125 4.062158203125001 1.668871875 Q 4.062158203125001 1.6440281250000002 4.055361328125001 1.6210593750000002 Q 4.048564453125001 1.5980906250000002 4.0337988281250015 1.583559375 Q 4.019033203125002 1.569028125 3.9955957031250016 1.569028125 Q 3.9763769531250013 1.569028125 3.9641894531250013 1.580746875 Q 3.9520019531250012 1.592465625 3.9461425781250012 1.610746875 Q 3.9402832031250012 1.629028125 3.9402832031250012 1.6496531250000002 Q 3.9402832031250012 1.674496875 3.9473144531250015 1.697465625 Q 3.9543457031250013 1.7204343750000002 3.9693457031250015 1.734965625 Q 3.9843457031250016 1.7494968750000002 4.007783203125001 1.7494968750000002 M 4.154960403442384 1.764965625 L 4.154960403442384 1.757465625 L 4.184491653442384 1.7424656250000001 L 4.184491653442384 1.6027781250000002 L 4.156366653442384 1.5784031250000001 L 4.156366653442384 1.575121875 L 4.214491653442384 1.5493406250000001 L 4.2173041534423845 1.5493406250000001 L 4.221522903442384 1.5840281250000001 L 4.223866653442385 1.5840281250000001 Q 4.2416791534423846 1.5662156250000001 4.2583197784423845 1.557778125 Q 4.2749604034423845 1.5493406250000001 4.295116653442385 1.5493406250000001 Q 4.3227729034423845 1.5493406250000001 4.3403510284423845 1.56316875 Q 4.3579291534423845 1.576996875 4.3579291534423845 1.604184375 L 4.3579291534423845 1.7424656250000001 L 4.387460403442384 1.757465625 L 4.387460403442384 1.764965625 L 4.287147903442384 1.764965625 L 4.287147903442384 1.757465625 L 4.320429153442384 1.7424656250000001 L 4.320429153442384 1.6262156250000002 Q 4.320429153442384 1.605590625 4.307538528442384 1.594809375 Q 4.294647903442384 1.5840281250000001 4.2740229034423844 1.5840281250000001 Q 4.261366653442384 1.5840281250000001 4.246132278442384 1.588246875 Q 4.230897903442385 1.592465625 4.221991653442385 1.600434375 L 4.221991653442385 1.7424656250000001 L 4.255272903442385 1.757465625 L 4.255272903442385 1.764965625 L 4.154960403442384 1.764965625 M 4.531352691650392 1.769653125 Q 4.485883941650393 1.769653125 4.4596339416503925 1.7419968750000001 Q 4.433383941650392 1.7143406250000002 4.433383941650392 1.668871875 Q 4.433383941650392 1.633715625 4.447212066650392 1.6067625 Q 4.461040191650392 1.5798093750000002 4.483774566650393 1.564575 Q 4.5065089416503925 1.5493406250000001 4.533227691650392 1.5493406250000001 Q 4.570258941650392 1.5493406250000001 4.591587066650392 1.575121875 Q 4.6129151916503925 1.600903125 4.6129151916503925 1.6491843750000001 L 4.610571441650392 1.651528125 L 4.4704151916503925 1.651528125 Q 4.470883941650392 1.6730906250000002 4.478852691650393 1.692075 Q 4.486821441650393 1.711059375 4.504399566650393 1.722778125 Q 4.521977691650393 1.734496875 4.551508941650392 1.734496875 Q 4.577290191650392 1.734496875 4.6119776916503925 1.715746875 L 4.613383941650392 1.715746875 L 4.613383941650392 1.7204343750000002 Q 4.602602691650392 1.740590625 4.581274566650392 1.7551218750000002 Q 4.559946441650393 1.769653125 4.531352691650392 1.769653125 M 4.525727691650393 1.569965625 Q 4.503227691650393 1.569965625 4.4889308166503925 1.5856687500000002 Q 4.474633941650392 1.6013718750000001 4.4713526916503925 1.629965625 L 4.577290191650392 1.629965625 Q 4.572133941650392 1.5980906250000002 4.5592433166503925 1.5840281250000001 Q 4.546352691650393 1.569965625 4.525727691650393 1.569965625 M 4.86088806152344 1.769653125 Q 4.84026306152344 1.769653125 4.825263061523439 1.757465625 Q 4.81026306152344 1.745278125 4.81026306152344 1.723246875 L 4.81026306152344 1.576059375 L 4.77182556152344 1.576059375 L 4.77182556152344 1.5732468750000002 L 4.811669311523439 1.554028125 L 4.84495056152344 1.5024656250000001 L 4.847763061523439 1.5024656250000001 L 4.847763061523439 1.554028125 L 4.90963806152344 1.554028125 L 4.90963806152344 1.576059375 L 4.847763061523439 1.576059375 L 4.847763061523439 1.7152781250000002 Q 4.847763061523439 1.727465625 4.858544311523439 1.733090625 Q 4.869325561523439 1.738715625 4.883856811523439 1.738715625 Q 4.892763061523439 1.738715625 4.900497436523439 1.7377781250000002 Q 4.908231811523439 1.7368406250000001 4.91385681152344 1.735434375 L 4.91526306152344 1.735434375 L 4.91526306152344 1.740121875 Q 4.91057556152344 1.750903125 4.89674743652344 1.7602781250000001 Q 4.882919311523439 1.769653125 4.86088806152344 1.769653125 M 5.007139892578127 1.769653125 Q 4.985108642578127 1.769653125 4.970577392578127 1.7567625 Q 4.956046142578128 1.7438718750000002 4.956046142578128 1.7209031250000002 Q 4.956046142578128 1.697934375 4.973155517578127 1.681059375 Q 4.990264892578128 1.664184375 5.030577392578127 1.6548093750000001 L 5.075108642578127 1.6444968750000002 L 5.075108642578127 1.610278125 Q 5.075108642578127 1.594340625 5.062218017578127 1.58285625 Q 5.049327392578127 1.571371875 5.032921142578127 1.571371875 Q 5.015108642578127 1.571371875 5.0080773925781275 1.58098125 Q 5.001046142578128 1.5905906250000001 5.001046142578128 1.606528125 L 5.001046142578128 1.6196531250000001 L 4.998702392578127 1.621996875 L 4.974327392578127 1.621996875 Q 4.967296142578127 1.621996875 4.964718017578127 1.6196531250000001 Q 4.9621398925781275 1.617309375 4.9621398925781275 1.6088718750000002 Q 4.9621398925781275 1.598559375 4.968233642578127 1.587778125 Q 4.974327392578127 1.576996875 4.986983642578127 1.569028125 Q 5.000108642578128 1.5605906250000001 5.014405517578127 1.5549656250000001 Q 5.028702392578127 1.5493406250000001 5.0451086425781275 1.5493406250000001 Q 5.061514892578128 1.5493406250000001 5.077218017578128 1.554028125 Q 5.092921142578128 1.558715625 5.1027648925781275 1.56973125 Q 5.112608642578127 1.580746875 5.112608642578127 1.600434375 L 5.112608642578127 1.733559375 Q 5.115889892578127 1.7368406250000001 5.121983642578127 1.739184375 Q 5.128077392578128 1.741528125 5.1388586425781275 1.741528125 L 5.156671142578127 1.741528125 L 5.158077392578127 1.7424656250000001 L 5.158077392578127 1.7438718750000002 Q 5.152452392578128 1.7541843750000001 5.141436767578127 1.7619187500000002 Q 5.130421142578127 1.769653125 5.1144836425781275 1.769653125 Q 5.099952392578127 1.769653125 5.090811767578128 1.7619187500000002 Q 5.081671142578127 1.7541843750000001 5.077921142578127 1.741528125 L 5.075108642578127 1.741528125 Q 5.062921142578127 1.7537156250000001 5.044874267578128 1.7616843750000002 Q 5.026827392578127 1.769653125 5.007139892578127 1.769653125 M 4.992608642578127 1.711528125 Q 4.992608642578127 1.740590625 5.027764892578127 1.740590625 Q 5.039014892578128 1.740590625 5.0500305175781275 1.7382468750000002 Q 5.061046142578127 1.735903125 5.075108642578127 1.729809375 L 5.075108642578127 1.6604343750000001 Q 5.037608642578127 1.6674656250000002 5.020264892578127 1.6752 Q 5.002921142578128 1.682934375 4.997764892578127 1.6918406250000002 Q 4.992608642578127 1.700746875 4.992608642578127 1.711528125 M 5.190427551269534 1.8727781250000002 L 5.190427551269534 1.8652781250000001 L 5.2199588012695335 1.850278125 L 5.2199588012695335 1.6027781250000002 L 5.191833801269533 1.5784031250000001 L 5.191833801269533 1.575121875 L 5.249958801269534 1.5493406250000001 L 5.252771301269534 1.5493406250000001 L 5.256521301269534 1.5779343750000001 L 5.259802551269534 1.5779343750000001 Q 5.2776150512695335 1.5629343750000002 5.294021301269534 1.5561375000000002 Q 5.310427551269534 1.5493406250000001 5.329646301269534 1.5493406250000001 Q 5.353552551269534 1.5493406250000001 5.371833801269534 1.5615281250000002 Q 5.390115051269534 1.5737156250000002 5.4006619262695335 1.5959812500000001 Q 5.411208801269534 1.618246875 5.411208801269534 1.6491843750000001 Q 5.411208801269534 1.687621875 5.396911926269533 1.7145750000000002 Q 5.382615051269534 1.741528125 5.358240051269534 1.7555906250000002 Q 5.333865051269534 1.769653125 5.304802551269534 1.769653125 Q 5.2785525512695335 1.769653125 5.257458801269534 1.764965625 L 5.257458801269534 1.850278125 L 5.290740051269534 1.8652781250000001 L 5.290740051269534 1.8727781250000002 L 5.190427551269534 1.8727781250000002 M 5.303865051269534 1.581684375 Q 5.292615051269534 1.581684375 5.280661926269533 1.5852000000000002 Q 5.268708801269534 1.588715625 5.257458801269534 1.5957468750000001 L 5.257458801269534 1.727465625 Q 5.271521301269534 1.738715625 5.286052551269534 1.7429343750000001 Q 5.300583801269534 1.747153125 5.318396301269534 1.747153125 Q 5.340896301269534 1.747153125 5.357302551269534 1.72816875 Q 5.373708801269534 1.7091843750000002 5.373708801269534 1.664653125 Q 5.373708801269534 1.635590625 5.364333801269534 1.617309375 Q 5.354958801269534 1.599028125 5.339021301269534 1.5903562500000001 Q 5.323083801269534 1.581684375 5.303865051269534 1.581684375" fill="#bd2949" fill-rule="nonzero"></path></g><g clip-path="url(#SvgjsClipPath1002)"><g clip-path="url(#SvgjsClipPath100086a3d2a6-1ebc-4e3f-99d1-e4a78baa6361)"><path d=" M 3.137648853995202 -1.100945593063241 L 1.7408029171844475 -2.497791529873995 L 2.215128397964025 -3.3191982906012627 L 3.611690307540779 -1.9226363810245082 L 3.137648853995202 -1.100945593063241 Z" fill="#bd2949" transform="matrix(1,0,0,1,0,0)" fill-rule="evenodd"></path></g><g clip-path="url(#SvgjsClipPath100086a3d2a6-1ebc-4e3f-99d1-e4a78baa6361)"><path d=" M 0.47432548077957704 -2.4682526975380217 L 0.9486509615591541 -3.289943485499289 L 1.7408029171844475 -2.497791529873995 L 0.47432548077957704 -2.4682526975380217 Z" fill="#bd2949" transform="matrix(1,0,0,1,0,0)" fill-rule="evenodd"></path></g><g clip-path="url(#SvgjsClipPath100086a3d2a6-1ebc-4e3f-99d1-e4a78baa6361)"><path d=" M 2.663039345981625 -0.2795388323359731 L 1.8708873903563317 -1.0716907879612667 L 3.137648853995202 -1.100945593063241 L 2.663039345981625 -0.2795388323359731 Z" fill="#bd2949" transform="matrix(1,0,0,1,0,0)" fill-rule="evenodd"></path></g><g clip-path="url(#SvgjsClipPath100086a3d2a6-1ebc-4e3f-99d1-e4a78baa6361)"><path d=" M 1.3965619095767545 -0.25 L 0 -1.6468459368107542 L 0.47432548077957704 -2.4682526975380217 L 1.8708873903563317 -1.0716907879612667 L 1.3965619095767545 -0.25 Z" fill="#bd2949" transform="matrix(1,0,0,1,0,0)" fill-rule="evenodd"></path></g></g></g><defs><clipPath id="SvgjsClipPath1002"><path d=" M 0 -3.3191982906012627 h 3.611690307540779 v 3.0691982906012627 h -3.611690307540779 Z"></path></clipPath><clipPath id="SvgjsClipPath100086a3d2a6-1ebc-4e3f-99d1-e4a78baa6361"><path d=" M 0 -3.3191982906012627 L 3.611690307540779 -3.3191982906012627 L 3.611690307540779 -0.25 L 0 -0.25 Z"></path></clipPath></defs></svg>