<svg xmlns="http://www.w3.org/2000/svg" version="1.1" xmlns:xlink="http://www.w3.org/1999/xlink" xmlns:svgjs="http://svgjs.dev/svgjs" viewBox="0 0 13.905060872039167 3.0828846693249856"><g transform="matrix(1,0,0,1,0.5143110543729579,0.5621110846624929)"><rect width="13.905060872039167" height="13.905060872039167" x="-0.5143110543729579" y="-5.973199186019583" fill="#225777"></rect><g><path d=" M 0.0555 0.8025 Q 0.0585 0.867 0.08925 0.9195000000000001 Q 0.12 0.9720000000000001 0.17325000000000002 1.00875 Q 0.2265 1.0455 0.2985 1.06575 Q 0.3705 1.086 0.456 1.086 Q 0.543 1.086 0.61275 1.0650000000000002 Q 0.6825 1.044 0.732 1.0050000000000001 Q 0.7815 0.9660000000000001 0.8085 0.9105000000000001 Q 0.8355 0.8550000000000001 0.8355 0.7875000000000001 Q 0.8355 0.6945000000000001 0.789 0.6352500000000001 Q 0.7425 0.5760000000000001 0.67275 0.53625 Q 0.603 0.49650000000000005 0.52125 0.46950000000000003 Q 0.4395 0.4425 0.36975 0.4125000000000001 Q 0.3 0.38250000000000006 0.2535 0.3435 Q 0.20700000000000002 0.3045 0.20700000000000002 0.24 Q 0.20700000000000002 0.20400000000000007 0.22275 0.1725 Q 0.23850000000000002 0.14100000000000001 0.26925 0.11775000000000002 Q 0.3 0.09450000000000003 0.34500000000000003 0.08025000000000004 Q 0.39 0.06600000000000006 0.4485 0.06600000000000006 Q 0.546 0.06600000000000006 0.61425 0.10725000000000007 Q 0.6825 0.14850000000000008 0.6945 0.237 L 0.7965 0.237 Q 0.7875 0.1815 0.756 0.1372500000000001 Q 0.7245 0.09300000000000008 0.6765 0.06225000000000014 Q 0.6285000000000001 0.031500000000000083 0.56775 0.01574999999999993 Q 0.507 0 0.441 0 Q 0.372 0 0.30975 0.018000000000000016 Q 0.2475 0.03600000000000003 0.20025 0.07050000000000001 Q 0.153 0.1050000000000001 0.12525 0.15750000000000008 Q 0.0975 0.21000000000000008 0.0975 0.2775000000000001 Q 0.0975 0.366 0.14250000000000002 0.42000000000000004 Q 0.1875 0.4740000000000001 0.25575000000000003 0.51 Q 0.324 0.546 0.4035 0.5715000000000001 Q 0.483 0.597 0.55125 0.6292500000000001 Q 0.6195 0.6615 0.6645 0.7080000000000001 Q 0.7095 0.7545000000000001 0.7095 0.8325 Q 0.7095 0.93 0.63825 0.9750000000000001 Q 0.5670000000000001 1.02 0.4485 1.02 Q 0.354 1.02 0.297 0.9952500000000001 Q 0.24 0.9705 0.21 0.936 Q 0.18 0.9015000000000001 0.1695 0.86475 Q 0.159 0.8280000000000001 0.1575 0.8025 L 0.0555 0.8025 M 1.2165 0.018000000000000016 L 1.1145 0.018000000000000016 L 1.1145 1.068 L 1.1804999999999999 1.068 L 1.1804999999999999 0.21150000000000002 L 1.1865 0.21150000000000002 L 1.65 1.086 L 1.677 1.086 L 2.151 0.21750000000000003 L 2.157 0.21750000000000003 L 2.157 1.068 L 2.2935 1.068 L 2.2935 0.018000000000000016 L 2.19 0.018000000000000016 L 1.704 0.9195000000000001 L 1.698 0.9195000000000001 L 1.2165 0.018000000000000016 M 3.23400146484375 0.7590000000000001 L 3.3780014648437495 1.068 L 3.5235014648437497 1.068 L 3.03450146484375 0.018000000000000016 L 2.9595014648437497 0.018000000000000016 L 2.5155014648437497 1.068 L 2.5845014648437497 1.068 L 2.7165014648437498 0.7590000000000001 L 3.23400146484375 0.7590000000000001 M 3.20250146484375 0.6915 L 2.74500146484375 0.6915 L 2.9610014648437497 0.18600000000000005 L 2.96700146484375 0.18600000000000005 L 3.20250146484375 0.6915 M 3.745493408203125 0.018000000000000016 L 3.745493408203125 1.068 L 3.8819934082031247 1.068 L 3.8819934082031247 0.6045 L 3.9479934082031245 0.6045 Q 3.9899934082031248 0.6045 4.017743408203125 0.6120000000000001 Q 4.045493408203125 0.6195 4.067993408203125 0.6375000000000001 Q 4.090493408203125 0.6555 4.109993408203125 0.684 Q 4.129493408203125 0.7125000000000001 4.156493408203125 0.7545000000000001 L 4.274993408203125 0.93 Q 4.297493408203125 0.9645 4.319243408203125 0.9930000000000001 Q 4.340993408203125 1.0215 4.366493408203125 1.04175 Q 4.391993408203125 1.062 4.424243408203124 1.074 Q 4.456493408203125 1.086 4.501493408203125 1.086 Q 4.534493408203125 1.086 4.555493408203125 1.083 Q 4.576493408203125 1.08 4.597493408203125 1.068 L 4.597493408203125 1.0125 Q 4.589993408203124 1.014 4.582493408203125 1.01475 Q 4.574993408203125 1.0155 4.567493408203124 1.0155 Q 4.535993408203125 1.0155 4.511993408203125 1.0065 Q 4.487993408203125 0.9975 4.466993408203125 0.9802500000000001 Q 4.445993408203124 0.9630000000000001 4.426493408203124 0.93825 Q 4.406993408203125 0.9135000000000001 4.385993408203125 0.8820000000000001 Q 4.322993408203125 0.7905 4.2884934082031245 0.7357500000000001 Q 4.253993408203125 0.681 4.233743408203125 0.651 Q 4.213493408203124 0.621 4.200743408203125 0.6075 Q 4.187993408203125 0.5940000000000001 4.1699934082031245 0.5850000000000001 L 4.154993408203125 0.5775000000000001 L 4.154993408203125 0.5715000000000001 Q 4.226993408203125 0.5670000000000001 4.278743408203125 0.54 Q 4.330493408203124 0.513 4.363493408203125 0.47250000000000003 Q 4.396493408203125 0.43200000000000005 4.411493408203125 0.38475000000000004 Q 4.426493408203124 0.3375 4.426493408203124 0.2925000000000001 Q 4.426493408203124 0.252 4.410743408203125 0.20400000000000007 Q 4.394993408203125 0.15600000000000003 4.3567434082031244 0.11475000000000002 Q 4.318493408203125 0.07350000000000001 4.252493408203125 0.04574999999999996 Q 4.186493408203125 0.018000000000000016 4.085993408203125 0.018000000000000016 L 3.745493408203125 0.018000000000000016 M 3.8819934082031247 0.08400000000000007 L 4.033493408203125 0.08400000000000007 Q 4.090493408203125 0.08400000000000007 4.136243408203125 0.10050000000000003 Q 4.181993408203125 0.11699999999999999 4.214993408203124 0.14625 Q 4.247993408203125 0.1755 4.2652434082031245 0.21600000000000008 Q 4.282493408203124 0.25650000000000006 4.282493408203124 0.3045 Q 4.282493408203124 0.3450000000000001 4.266743408203125 0.3862500000000001 Q 4.250993408203125 0.4275000000000001 4.219493408203125 0.46125000000000005 Q 4.187993408203125 0.495 4.142243408203124 0.516 Q 4.096493408203124 0.537 4.036493408203125 0.537 L 3.8819934082031247 0.537 L 3.8819934082031247 0.08400000000000007 M 5.208019775390625 1.068 L 5.208019775390625 0.10050000000000003 L 5.610019775390625 0.10050000000000003 L 5.610019775390625 0.018000000000000016 L 4.669519775390625 0.018000000000000016 L 4.669519775390625 0.10050000000000003 L 5.071519775390625 0.10050000000000003 L 5.071519775390625 1.068 L 5.208019775390625 1.068 M 6.5954970703125 0.8745 Q 6.442497070312499 1.0185 6.232497070312499 1.0185 Q 6.115497070312499 1.0185 6.0254970703124995 0.9780000000000001 Q 5.9354970703125 0.9375 5.875497070312499 0.8700000000000001 Q 5.8154970703124995 0.8025 5.784747070312499 0.7140000000000001 Q 5.7539970703125 0.6255000000000001 5.7539970703125 0.5295000000000001 Q 5.7539970703125 0.4275000000000001 5.786247070312499 0.34275 Q 5.8184970703125 0.258 5.876997070312499 0.1965 Q 5.9354970703125 0.135 6.015747070312499 0.10050000000000003 Q 6.0959970703124995 0.06600000000000006 6.1904970703124995 0.06600000000000006 Q 6.254997070312499 0.06600000000000006 6.3082470703124995 0.08100000000000007 Q 6.3614970703125 0.09600000000000009 6.4027470703125 0.12 Q 6.443997070312499 0.14400000000000002 6.4702470703124995 0.17475000000000007 Q 6.4964970703125 0.20550000000000002 6.506997070312499 0.237 L 6.6179970703125 0.237 Q 6.5954970703125 0.18600000000000005 6.560247070312499 0.14250000000000007 Q 6.5249970703125 0.09900000000000009 6.4724970703124995 0.06750000000000012 Q 6.419997070312499 0.03600000000000003 6.349497070312499 0.018000000000000016 Q 6.278997070312499 0 6.1889970703124995 0 Q 6.0584970703125 0 5.951247070312499 0.03750000000000009 Q 5.8439970703125 0.07500000000000007 5.7674970703124995 0.14475000000000005 Q 5.690997070312499 0.21450000000000002 5.648997070312499 0.3127500000000001 Q 5.6069970703125 0.41100000000000003 5.6069970703125 0.5325000000000001 Q 5.6069970703125 0.6375000000000001 5.640747070312499 0.7372500000000001 Q 5.6744970703124995 0.8370000000000001 5.7449970703124995 0.91425 Q 5.8154970703124995 0.9915 5.924997070312499 1.03875 Q 6.0344970703125 1.086 6.185997070312499 1.086 Q 6.281997070312499 1.086 6.3577470703125 1.068 Q 6.4334970703125 1.05 6.489747070312499 1.0237500000000002 Q 6.5459970703125 0.9975 6.583497070312499 0.9675 Q 6.6209970703125 0.9375 6.6404970703125 0.915 L 6.5954970703125 0.8745 M 7.430955322265625 0.7590000000000001 L 7.574955322265624 1.068 L 7.720455322265624 1.068 L 7.231455322265624 0.018000000000000016 L 7.156455322265624 0.018000000000000016 L 6.712455322265624 1.068 L 6.781455322265624 1.068 L 6.913455322265625 0.7590000000000001 L 7.430955322265625 0.7590000000000001 M 7.3994553222656245 0.6915 L 6.941955322265624 0.6915 L 7.157955322265624 0.18600000000000005 L 7.1639553222656245 0.18600000000000005 L 7.3994553222656245 0.6915 M 7.942447265624999 0.018000000000000016 L 7.942447265624999 1.068 L 8.078947265624999 1.068 L 8.078947265624999 0.6045 L 8.144947265625 0.6045 Q 8.186947265625 0.6045 8.214697265624999 0.6120000000000001 Q 8.242447265625 0.6195 8.264947265624999 0.6375000000000001 Q 8.287447265625 0.6555 8.306947265624999 0.684 Q 8.326447265625 0.7125000000000001 8.353447265624999 0.7545000000000001 L 8.471947265625 0.93 Q 8.494447265624999 0.9645 8.516197265625 0.9930000000000001 Q 8.537947265624998 1.0215 8.563447265625 1.04175 Q 8.588947265624999 1.062 8.621197265625 1.074 Q 8.653447265625 1.086 8.698447265625 1.086 Q 8.731447265624999 1.086 8.752447265625 1.083 Q 8.773447265624998 1.08 8.794447265625 1.068 L 8.794447265625 1.0125 Q 8.786947265624999 1.014 8.779447265624999 1.01475 Q 8.771947265624998 1.0155 8.764447265625 1.0155 Q 8.732947265624999 1.0155 8.708947265625 1.0065 Q 8.684947265624999 0.9975 8.663947265625 0.9802500000000001 Q 8.642947265624999 0.9630000000000001 8.623447265625 0.93825 Q 8.603947265625 0.9135000000000001 8.582947265624998 0.8820000000000001 Q 8.519947265625 0.7905 8.485447265625 0.7357500000000001 Q 8.450947265624999 0.681 8.430697265625 0.651 Q 8.410447265624999 0.621 8.397697265624998 0.6075 Q 8.384947265625 0.5940000000000001 8.366947265624999 0.5850000000000001 L 8.351947265624998 0.5775000000000001 L 8.351947265624998 0.5715000000000001 Q 8.423947265625 0.5670000000000001 8.475697265625 0.54 Q 8.527447265625 0.513 8.560447265625 0.47250000000000003 Q 8.593447265624999 0.43200000000000005 8.608447265625 0.38475000000000004 Q 8.623447265625 0.3375 8.623447265625 0.2925000000000001 Q 8.623447265625 0.252 8.607697265625 0.20400000000000007 Q 8.591947265624999 0.15600000000000003 8.553697265624999 0.11475000000000002 Q 8.515447265625 0.07350000000000001 8.449447265624999 0.04574999999999996 Q 8.383447265625 0.018000000000000016 8.282947265625 0.018000000000000016 L 7.942447265624999 0.018000000000000016 M 8.078947265624999 0.08400000000000007 L 8.230447265625 0.08400000000000007 Q 8.287447265625 0.08400000000000007 8.333197265625 0.10050000000000003 Q 8.378947265625 0.11699999999999999 8.411947265624999 0.14625 Q 8.444947265624998 0.1755 8.462197265624999 0.21600000000000008 Q 8.479447265625 0.25650000000000006 8.479447265625 0.3045 Q 8.479447265625 0.3450000000000001 8.463697265625 0.3862500000000001 Q 8.447947265624999 0.4275000000000001 8.416447265625 0.46125000000000005 Q 8.384947265625 0.495 8.339197265625 0.516 Q 8.293447265625 0.537 8.233447265625 0.537 L 8.078947265624999 0.537 L 8.078947265624999 0.08400000000000007 M 9.0314736328125 1.068 L 9.0314736328125 0.018000000000000016 L 9.376473632812498 0.018000000000000016 Q 9.5009736328125 0.018000000000000016 9.6044736328125 0.05774999999999997 Q 9.707973632812498 0.09750000000000003 9.7822236328125 0.16725 Q 9.856473632812499 0.237 9.897723632812498 0.3330000000000001 Q 9.938973632812498 0.42900000000000005 9.938973632812498 0.54 Q 9.938973632812498 0.6555 9.896223632812498 0.7522500000000001 Q 9.853473632812499 0.8490000000000001 9.7792236328125 0.9195000000000001 Q 9.7049736328125 0.9900000000000001 9.6059736328125 1.0290000000000001 Q 9.5069736328125 1.068 9.394473632812499 1.068 L 9.0314736328125 1.068 M 9.1679736328125 1.002 L 9.332973632812498 1.002 Q 9.4559736328125 1.002 9.5422236328125 0.9607500000000001 Q 9.628473632812499 0.9195000000000001 9.6839736328125 0.8535 Q 9.7394736328125 0.7875000000000001 9.764973632812499 0.7057500000000001 Q 9.7904736328125 0.6240000000000001 9.7904736328125 0.543 Q 9.7904736328125 0.45300000000000007 9.760473632812499 0.36975 Q 9.7304736328125 0.2865000000000001 9.672723632812499 0.22275 Q 9.614973632812498 0.15900000000000003 9.529473632812499 0.12150000000000005 Q 9.443973632812499 0.08400000000000007 9.332973632812498 0.08400000000000007 L 9.1679736328125 0.08400000000000007 L 9.1679736328125 1.002" fill="#ffffff" fill-rule="nonzero"></path></g><g><path d=" M 5.472818481445315 1.9459124999999997 Q 5.433443481445314 1.9279124999999997 5.410943481445314 1.8956624999999998 Q 5.388443481445314 1.8634124999999997 5.386943481445314 1.8236624999999997 L 5.442443481445315 1.8236624999999997 Q 5.446193481445315 1.8619124999999999 5.476193481445314 1.8907874999999998 Q 5.506193481445314 1.9196624999999998 5.563943481445315 1.9196624999999998 Q 5.617193481445314 1.9196624999999998 5.6483184814453145 1.8922874999999997 Q 5.679443481445315 1.8649124999999998 5.679443481445315 1.8229124999999997 Q 5.679443481445315 1.7891624999999998 5.662193481445314 1.7685374999999997 Q 5.644943481445314 1.7479124999999998 5.619443481445314 1.7377874999999998 Q 5.593943481445314 1.7276624999999997 5.548943481445314 1.7156624999999996 Q 5.496443481445315 1.7014124999999998 5.465693481445315 1.6879124999999997 Q 5.434943481445314 1.6744124999999999 5.413193481445314 1.6459124999999997 Q 5.3914434814453145 1.6174124999999997 5.3914434814453145 1.5686624999999998 Q 5.3914434814453145 1.5281624999999996 5.412443481445314 1.4962874999999998 Q 5.433443481445314 1.4644124999999997 5.471693481445315 1.4464124999999997 Q 5.5099434814453145 1.4284124999999999 5.559443481445315 1.4284124999999999 Q 5.632193481445315 1.4284124999999999 5.676818481445315 1.4640374999999997 Q 5.721443481445315 1.4996624999999997 5.728193481445315 1.5559124999999998 L 5.671193481445314 1.5559124999999998 Q 5.665943481445314 1.5236624999999997 5.635943481445315 1.4985374999999999 Q 5.605943481445315 1.4734124999999998 5.5549434814453145 1.4734124999999998 Q 5.5076934814453145 1.4734124999999998 5.476193481445314 1.4985374999999999 Q 5.444693481445315 1.5236624999999997 5.444693481445315 1.5671624999999998 Q 5.444693481445315 1.6001624999999997 5.4619434814453145 1.6204124999999998 Q 5.479193481445314 1.6406624999999997 5.505068481445314 1.6511624999999999 Q 5.5309434814453144 1.6616624999999998 5.575193481445314 1.6736624999999998 Q 5.6261934814453145 1.6879124999999997 5.657693481445315 1.7017874999999998 Q 5.689193481445314 1.7156624999999996 5.710943481445314 1.7441624999999998 Q 5.732693481445314 1.7726624999999998 5.732693481445314 1.8206624999999996 Q 5.732693481445314 1.8574124999999997 5.713193481445314 1.8904124999999998 Q 5.693693481445314 1.9234124999999997 5.655443481445315 1.9436624999999998 Q 5.617193481445314 1.9639124999999997 5.563943481445315 1.9639124999999997 Q 5.512193481445315 1.9639124999999997 5.472818481445315 1.9459124999999997 M 6.348084594726565 1.4411625 L 6.348084594726565 1.9586624999999998 L 6.295584594726565 1.9586624999999998 L 6.295584594726565 1.5454124999999999 L 6.111084594726565 1.9586624999999998 L 6.072834594726564 1.9586624999999998 L 5.888334594726564 1.5469124999999997 L 5.888334594726564 1.9586624999999998 L 5.835834594726564 1.9586624999999998 L 5.835834594726564 1.4411625 L 5.8913345947265645 1.4411625 L 6.091584594726565 1.8896624999999998 L 6.291834594726565 1.4411625 L 6.348084594726565 1.4411625 M 6.772944580078127 1.8341624999999997 L 6.5344445800781275 1.8341624999999997 L 6.4886945800781275 1.9586624999999998 L 6.433194580078127 1.9586624999999998 L 6.624444580078127 1.4411625 L 6.683694580078127 1.4411625 L 6.874194580078127 1.9586624999999998 L 6.818694580078128 1.9586624999999998 L 6.772944580078127 1.8341624999999997 M 6.757194580078127 1.7906624999999998 L 6.6536945800781275 1.5071624999999997 L 6.550194580078127 1.7906624999999998 L 6.757194580078127 1.7906624999999998 M 7.239052734375003 1.9586624999999998 L 7.109302734375002 1.7396624999999997 L 7.012552734375002 1.7396624999999997 L 7.012552734375002 1.9586624999999998 L 6.960052734375002 1.9586624999999998 L 6.960052734375002 1.4344124999999996 L 7.1175527343750025 1.4344124999999996 Q 7.205302734375002 1.4344124999999996 7.250677734375002 1.4764124999999997 Q 7.296052734375002 1.5184124999999997 7.296052734375002 1.5866624999999996 Q 7.296052734375002 1.6436624999999998 7.263427734375002 1.6837874999999998 Q 7.230802734375002 1.7239124999999997 7.167052734375003 1.7359124999999997 L 7.302052734375002 1.9586624999999998 L 7.239052734375003 1.9586624999999998 M 7.012552734375002 1.6969124999999998 L 7.1183027343750025 1.6969124999999998 Q 7.179802734375002 1.6969124999999998 7.2109277343750025 1.6669124999999998 Q 7.242052734375002 1.6369124999999998 7.242052734375002 1.5866624999999996 Q 7.242052734375002 1.5349124999999997 7.2120527343750025 1.5067874999999997 Q 7.182052734375002 1.4786624999999998 7.1175527343750025 1.4786624999999998 L 7.012552734375002 1.4786624999999998 L 7.012552734375002 1.6969124999999998 M 7.7089090576171895 1.4344124999999996 L 7.7089090576171895 1.4779124999999997 L 7.56340905761719 1.4779124999999997 L 7.56340905761719 1.9586624999999998 L 7.51090905761719 1.9586624999999998 L 7.51090905761719 1.4779124999999997 L 7.36465905761719 1.4779124999999997 L 7.36465905761719 1.4344124999999996 L 7.7089090576171895 1.4344124999999996 M 8.011163818359378 1.5577874999999999 Q 8.044913818359378 1.4966624999999998 8.103413818359378 1.4625374999999998 Q 8.161913818359377 1.4284124999999999 8.233913818359378 1.4284124999999999 Q 8.321663818359378 1.4284124999999999 8.384288818359378 1.4700374999999997 Q 8.446913818359377 1.5116624999999997 8.475413818359378 1.5874124999999997 L 8.413913818359378 1.5874124999999997 Q 8.391413818359377 1.5341624999999999 8.345288818359377 1.5041624999999996 Q 8.299163818359377 1.4741624999999998 8.233913818359378 1.4741624999999998 Q 8.176163818359377 1.4741624999999998 8.130038818359377 1.5011624999999997 Q 8.083913818359378 1.5281624999999996 8.057663818359378 1.5787874999999998 Q 8.031413818359377 1.6294124999999997 8.031413818359377 1.6961624999999998 Q 8.031413818359377 1.7629124999999997 8.057663818359378 1.8131624999999998 Q 8.083913818359378 1.8634124999999997 8.130038818359377 1.8904124999999998 Q 8.176163818359377 1.9174124999999997 8.233913818359378 1.9174124999999997 Q 8.299163818359377 1.9174124999999997 8.345288818359377 1.8877874999999997 Q 8.391413818359377 1.8581624999999997 8.413913818359378 1.8056624999999997 L 8.475413818359378 1.8056624999999997 Q 8.446913818359377 1.8806624999999997 8.383913818359378 1.9219124999999997 Q 8.320913818359378 1.9631624999999997 8.233913818359378 1.9631624999999997 Q 8.161913818359377 1.9631624999999997 8.103413818359378 1.9290374999999997 Q 8.044913818359378 1.8949124999999998 8.011163818359378 1.8341624999999997 Q 7.977413818359377 1.7734124999999998 7.977413818359377 1.6961624999999998 Q 7.977413818359377 1.6189124999999998 8.011163818359378 1.5577874999999999 M 8.885285888671877 1.8341624999999997 L 8.646785888671877 1.8341624999999997 L 8.601035888671877 1.9586624999999998 L 8.545535888671877 1.9586624999999998 L 8.736785888671877 1.4411625 L 8.796035888671877 1.4411625 L 8.986535888671877 1.9586624999999998 L 8.931035888671877 1.9586624999999998 L 8.885285888671877 1.8341624999999997 M 8.869535888671878 1.7906624999999998 L 8.766035888671878 1.5071624999999997 L 8.662535888671878 1.7906624999999998 L 8.869535888671878 1.7906624999999998 M 9.351394042968753 1.9586624999999998 L 9.221644042968753 1.7396624999999997 L 9.124894042968753 1.7396624999999997 L 9.124894042968753 1.9586624999999998 L 9.072394042968753 1.9586624999999998 L 9.072394042968753 1.4344124999999996 L 9.229894042968752 1.4344124999999996 Q 9.317644042968752 1.4344124999999996 9.363019042968753 1.4764124999999997 Q 9.408394042968753 1.5184124999999997 9.408394042968753 1.5866624999999996 Q 9.408394042968753 1.6436624999999998 9.375769042968752 1.6837874999999998 Q 9.343144042968753 1.7239124999999997 9.279394042968752 1.7359124999999997 L 9.414394042968752 1.9586624999999998 L 9.351394042968753 1.9586624999999998 M 9.124894042968753 1.6969124999999998 L 9.230644042968752 1.6969124999999998 Q 9.292144042968753 1.6969124999999998 9.323269042968752 1.6669124999999998 Q 9.354394042968753 1.6369124999999998 9.354394042968753 1.5866624999999996 Q 9.354394042968753 1.5349124999999997 9.324394042968752 1.5067874999999997 Q 9.294394042968753 1.4786624999999998 9.229894042968752 1.4786624999999998 L 9.124894042968753 1.4786624999999998 L 9.124894042968753 1.6969124999999998 M 9.81900036621094 1.4659124999999997 Q 9.88125036621094 1.4974124999999998 9.91425036621094 1.5566624999999998 Q 9.947250366210941 1.6159124999999999 9.947250366210941 1.6976624999999999 Q 9.947250366210941 1.7786624999999998 9.91425036621094 1.8375374999999998 Q 9.88125036621094 1.8964124999999998 9.81900036621094 1.9275374999999997 Q 9.756750366210941 1.9586624999999998 9.66975036621094 1.9586624999999998 L 9.51450036621094 1.9586624999999998 L 9.51450036621094 1.4344124999999996 L 9.66975036621094 1.4344124999999996 Q 9.756750366210941 1.4344124999999996 9.81900036621094 1.4659124999999997 M 9.83662536621094 1.8577874999999997 Q 9.89400036621094 1.8004124999999997 9.89400036621094 1.6976624999999999 Q 9.89400036621094 1.5941624999999997 9.83662536621094 1.5360374999999997 Q 9.77925036621094 1.4779124999999997 9.66975036621094 1.4779124999999997 L 9.56700036621094 1.4779124999999997 L 9.56700036621094 1.9151624999999997 L 9.66975036621094 1.9151624999999997 Q 9.77925036621094 1.9151624999999997 9.83662536621094 1.8577874999999997" fill="#ffffff" fill-rule="nonzero"></path></g><g clip-path="url(#SvgjsClipPath1014)"><g clip-path="url(#adb9bb797-2812-4933-a6e8-109c4e13c95566c14186-ff2b-4845-b698-4c865180b053)"><path d=" M 10.575254418564821 0.8965146615043598 L 10.383995605468751 0.8965146615043598" fill="none" transform="matrix(1,0,0,1,0,0)" fill-rule="nonzero" stroke-dasharray="none" stroke-miterlimit="10" stroke-linejoin="round" stroke-linecap="round" stroke-width="0.06667554927525528" stroke="#ffffff"></path></g><g clip-path="url(#SvgjsClipPath101266c14186-ff2b-4845-b698-4c865180b053)"><path d=" M 10.65212652422737 1.1833924890297016 L 10.569304379435957 1.2312099704516055" fill="none" transform="matrix(1,0,0,1,0,0)" fill-rule="nonzero" stroke-dasharray="none" stroke-miterlimit="10" stroke-linejoin="round" stroke-linecap="round" stroke-width="0.06667554927525528" stroke="#ffffff"></path></g><g clip-path="url(#SvgjsClipPath101266c14186-ff2b-4845-b698-4c865180b053)"><path d=" M 10.862146695051191 1.3934126598535235 L 10.76652284479893 1.5590458368448035 M 10.862146695051191 0.39962471049738935 L 10.76652284479893 0.2339915335061093" fill="none" transform="matrix(1,0,0,1,0,0)" fill-rule="nonzero" stroke-dasharray="none" stroke-miterlimit="10" stroke-linejoin="round" stroke-linecap="round" stroke-width="0.06667554927525528" stroke="#ffffff"></path></g><g clip-path="url(#SvgjsClipPath101266c14186-ff2b-4845-b698-4c865180b053)"><path d=" M 10.65212652422737 0.6096312842257992 L 10.569304379435957 0.5618138028038953" fill="none" transform="matrix(1,0,0,1,0,0)" fill-rule="nonzero" stroke-dasharray="none" stroke-miterlimit="10" stroke-linejoin="round" stroke-linecap="round" stroke-width="0.06667554927525528" stroke="#ffffff"></path></g><g clip-path="url(#bdb9bb797-2812-4933-a6e8-109c4e13c95566c14186-ff2b-4845-b698-4c865180b053)"><path d=" M 12.097146055955614 1.4397870369991397 L 12.097146055955614 1.8141146832219688 C 12.097146055955614 1.901937494209026 12.025958794512734 1.9731247556519067 11.938135983525676 1.9731247556519067 L 11.262357066437872 1.9731247556519067 C 11.174545368042361 1.9731247556519067 11.10335810659948 1.901937494209026 11.10335810659948 1.8141146832219688 L 11.10335810659948 0.14454781677803075 C 11.10335810659948 0.05672500579097364 11.174545368042361 -0.01446225565190707 11.262357066437872 -0.01446225565190707 L 11.938135983525676 -0.01446225565190707 C 12.025958794512734 -0.01446225565190707 12.097146055955614 0.056725005790973865 12.097146055955614 0.14454781677803075 L 12.097146055955614 0.3532422860095797" fill="none" transform="matrix(1,0,0,1,0,0)" fill-rule="nonzero" stroke-dasharray="none" stroke-miterlimit="10" stroke-linejoin="round" stroke-linecap="butt" stroke-width="0.06667554927525528" stroke="#ffffff"></path></g><g clip-path="url(#SvgjsClipPath101266c14186-ff2b-4845-b698-4c865180b053)"><path d=" M 11.517435631550741 1.80748552492234 L 11.683068808542021 1.80748552492234 M 11.103358245368314 1.64185234793106 L 12.097146194724449 1.64185234793106 M 12.097146194724449 0.1511648676010861 L 11.103358245368314 0.1511648676010861" fill="none" transform="matrix(1,0,0,1,0,0)" fill-rule="nonzero" stroke-dasharray="none" stroke-miterlimit="10" stroke-linejoin="round" stroke-linecap="round" stroke-width="0.06667554927525528" stroke="#ffffff"></path></g><g clip-path="url(#cdb9bb797-2812-4933-a6e8-109c4e13c95566c14186-ff2b-4845-b698-4c865180b053)"><path d=" M 11.385540143723906 0.6781188998532611 L 12.843100988655625 0.6781188998532611 L 12.843100988655625 0.823716074287327 L 11.385540143723906 0.823716074287327 Z M 12.773136112282788 0.4592452967656899 L 11.45550502009674 0.4592452967656899 C 11.416864485852228 0.4592452967656899 11.385540143723906 0.4905696388940112 11.385540143723906 0.5292101731385244 L 11.385540143723906 1.2638191498701956 C 11.385540143723906 1.2823749887938565 11.392911422035105 1.300170828864779 11.40603238156863 1.3132917883983053 C 11.419153341102158 1.326412747931831 11.43694918117308 1.33378402624303 11.45550502009674 1.33378402624303 L 12.773136112282788 1.33378402624303 C 12.811776646527303 1.33378402624303 12.843100988655625 1.3024596841147087 12.843100988655625 1.2638191498701956 L 12.843100988655625 0.5292101731385244 C 12.843100988079835 0.49056963785145324 12.811776645484745 0.4592452961899012 12.773136111240232 0.4592452967656899 Z M 11.567508830287624 1.1417028813725651 L 12.133039726648793 1.1417028813725651 M 11.567508830287624 1.0425896773748984 L 11.97439636973987 1.0425896773748984 M 12.611581256388845 1.1417028813725651 L 12.419500111518381 1.1417028813725651 C 12.392420100546445 1.1412973561000652 12.37068006719672 1.1192293265617193 12.37068006719672 1.0921462793737318 C 12.37068006719672 1.0650632321857438 12.392420100546445 1.0429952026473983 12.419500111518381 1.0425896773748984 L 12.611581256388845 1.0425896773748984 C 12.638661267360781 1.0429952026473983 12.660401300710507 1.0650632321857443 12.660401300710507 1.0921462793737318 C 12.660401300710507 1.1192293265617193 12.638661267360781 1.1412973561000652 12.611581256388845 1.1417028813725651 Z" fill="none" transform="matrix(1,0,0,1,0,0)" fill-rule="nonzero" stroke-dasharray="none" stroke-miterlimit="4" stroke-linejoin="round" stroke-linecap="round" stroke-width="0.06667554927525528" stroke="#ffffff"></path></g></g></g><defs><clipPath id="SvgjsClipPath1014"><path d=" M 10.383995605468751 -0.047800030289534834 h 2.4924431578245008 v 2.0542625605790694 h -2.4924431578245008 Z"></path></clipPath><clipPath id="adb9bb797-2812-4933-a6e8-109c4e13c95566c14186-ff2b-4845-b698-4c865180b053"><path d=" M 10.350668943422669 2.0064625302895345 L 12.876438763293251 2.0064625302895345 L 12.876438763293251 -0.047800030289534834 L 10.350668943422669 -0.047800030289534834 Z"></path></clipPath><clipPath id="SvgjsClipPath101266c14186-ff2b-4845-b698-4c865180b053"><path d=" M 10.383995605468751 -0.047800030289534834 L 12.876438763293251 -0.047800030289534834 L 12.876438763293251 2.0064625302895345 L 10.383995605468751 2.0064625302895345 Z"></path></clipPath><clipPath id="bdb9bb797-2812-4933-a6e8-109c4e13c95566c14186-ff2b-4845-b698-4c865180b053"><path d=" M 10.350668943422669 2.0064625302895345 L 12.876438763293251 2.0064625302895345 L 12.876438763293251 -0.047800030289534834 L 10.350668943422669 -0.047800030289534834 Z"></path></clipPath><clipPath id="cdb9bb797-2812-4933-a6e8-109c4e13c95566c14186-ff2b-4845-b698-4c865180b053"><path d=" M 10.350668943422669 2.0064625302895345 L 12.876438763293251 2.0064625302895345 L 12.876438763293251 -0.047800030289534834 L 10.350668943422669 -0.047800030289534834 Z"></path></clipPath></defs></svg>