<svg xmlns="http://www.w3.org/2000/svg" version="1.1" xmlns:xlink="http://www.w3.org/1999/xlink" xmlns:svgjs="http://svgjs.dev/svgjs" viewBox="0 0 8.594229113836306 7.884503712114269"><g transform="matrix(1,0,0,1,0.6858493450792107,5.327808213188905)"><g><path d=" M 0.7671941669170673 0.47549999999999987 C 0.7671941669170673 0.5564999999999999 0.8016941669170673 0.6689999999999998 0.8016941669170673 0.7769999999999999 C 0.8016941669170673 0.8309999999999998 0.7626941669170673 0.8834999999999998 0.7116941669170673 0.8834999999999998 C 0.6711941669170673 0.8834999999999998 0.6231941669170673 0.8054999999999999 0.6231941669170673 0.7304999999999999 C 0.6231941669170673 0.6809999999999998 0.7671941669170673 0.47549999999999987 0.7671941669170673 0.47549999999999987 M 0.9306941669170673 0.8609999999999999 C 0.9306941669170673 0.8609999999999999 0.9771941669170673 0.7964999999999999 0.9771941669170673 0.7394999999999998 C 0.9771941669170673 0.6269999999999998 0.9201941669170672 0.49649999999999983 0.9201941669170672 0.35099999999999987 C 0.9201941669170672 0.32399999999999984 0.8301941669170673 0.26549999999999985 0.8106941669170673 0.26549999999999985 C 0.7896941669170673 0.26549999999999985 0.7716941669170673 0.28349999999999986 0.7626941669170673 0.2999999999999998 C 0.7116941669170673 0.3839999999999999 0.5676941669170673 0.6044999999999998 0.5676941669170673 0.6044999999999998 C 0.5676941669170673 0.6044999999999998 0.44319416691706726 0.6629999999999998 0.44319416691706726 0.7364999999999998 C 0.44319416691706726 0.8294999999999999 0.6006941669170673 0.9899999999999999 0.7506941669170673 0.9899999999999999 C 0.9756941669170673 0.9899999999999999 1.1211941669170673 0.8534999999999999 1.2036941669170673 0.7034999999999998 C 1.2036941669170673 0.7034999999999998 1.2231941669170672 0.6689999999999998 1.2231941669170672 0.6509999999999998 C 1.2231941669170672 0.6329999999999998 1.1916941669170673 0.6089999999999999 1.1721941669170675 0.6089999999999999 C 1.1526941669170672 0.6089999999999999 1.1391941669170673 0.6359999999999999 1.1391941669170673 0.6359999999999999 C 1.0656941669170674 0.7709999999999999 0.9951941669170673 0.8309999999999998 0.9306941669170673 0.8609999999999999 M 1.9822168719951925 0.8444999999999998 C 1.9822168719951925 0.7649999999999999 2.0752168719951927 0.4724999999999998 2.0752168719951927 0.4019999999999998 C 2.0752168719951927 0.3464999999999998 1.9927168719951924 0.2849999999999998 1.9477168719951923 0.2849999999999998 C 1.8682168719951924 0.2849999999999998 1.7257168719951923 0.3839999999999999 1.7257168719951923 0.3839999999999999 C 1.7257168719951923 0.3839999999999999 1.6552168719951923 0.2849999999999998 1.5877168719951924 0.2849999999999998 C 1.5097168719951923 0.2849999999999998 1.3807168719951923 0.37349999999999983 1.3807168719951923 0.37349999999999983 C 1.3807168719951923 0.37349999999999983 1.3087168719951925 0.2849999999999998 1.2832168719951924 0.2849999999999998 C 1.2607168719951924 0.2849999999999998 1.2412168719951924 0.2954999999999999 1.2337168719951923 0.3164999999999999 C 1.2022168719951924 0.41849999999999987 1.0882168719951923 0.8714999999999998 1.0882168719951923 0.9104999999999999 C 1.0882168719951923 0.9509999999999998 1.1737168719951925 0.9899999999999999 1.2097168719951925 0.9899999999999999 C 1.2322168719951925 0.9899999999999999 1.2367168719951924 0.9749999999999999 1.2427168719951924 0.9554999999999999 C 1.2532168719951924 0.9119999999999999 1.3222168719951923 0.6089999999999999 1.3612168719951925 0.5099999999999998 C 1.3837168719951924 0.45299999999999985 1.4692168719951924 0.4139999999999998 1.5007168719951924 0.4139999999999998 C 1.5232168719951924 0.4139999999999998 1.5427168719951925 0.4289999999999998 1.5427168719951925 0.45599999999999985 C 1.5427168719951925 0.4889999999999999 1.4437168719951923 0.8714999999999998 1.4437168719951923 0.9104999999999999 C 1.4437168719951923 0.9509999999999998 1.5307168719951925 0.9899999999999999 1.5667168719951925 0.9899999999999999 C 1.5892168719951925 0.9899999999999999 1.5952168719951925 0.9764999999999998 1.5997168719951924 0.9554999999999999 C 1.6072168719951925 0.9134999999999999 1.6732168719951925 0.6059999999999999 1.7062168719951925 0.5144999999999998 C 1.7227168719951924 0.46499999999999986 1.8067168719951923 0.41549999999999987 1.8427168719951923 0.41549999999999987 C 1.8622168719951924 0.41549999999999987 1.8877168719951924 0.44099999999999984 1.8877168719951924 0.4664999999999998 C 1.8877168719951924 0.5234999999999999 1.8037168719951924 0.7859999999999998 1.8037168719951924 0.8594999999999998 C 1.8037168719951924 0.9269999999999998 1.9387168719951924 0.9899999999999999 2.0062168719951923 0.9899999999999999 C 2.1142168719951924 0.9899999999999999 2.201216871995192 0.8534999999999999 2.2852168719951926 0.7034999999999998 C 2.2852168719951926 0.7034999999999998 2.3047168719951925 0.6689999999999998 2.3047168719951925 0.6509999999999998 C 2.3047168719951925 0.6329999999999998 2.273216871995192 0.6089999999999999 2.2537168719951923 0.6089999999999999 C 2.2342168719951925 0.6089999999999999 2.2207168719951924 0.6359999999999999 2.2207168719951924 0.6359999999999999 C 2.1472168719951923 0.7709999999999999 2.0662168719951923 0.8864999999999998 2.0212168719951924 0.8864999999999998 C 2.0077168719951923 0.8864999999999998 1.9822168719951925 0.8639999999999999 1.9822168719951925 0.8444999999999998 M 2.6497146747295677 0.4484999999999999 C 2.6497146747295677 0.4904999999999999 2.6032146747295677 0.6719999999999999 2.5732146747295674 0.7349999999999999 C 2.5312146747295676 0.8219999999999998 2.4562146747295674 0.8744999999999998 2.4262146747295676 0.8744999999999998 C 2.4007146747295676 0.8744999999999998 2.3737146747295674 0.8489999999999999 2.3737146747295674 0.8144999999999999 C 2.3737146747295674 0.6824999999999999 2.4937146747295675 0.4049999999999998 2.5687146747295677 0.4049999999999998 C 2.5927146747295673 0.4049999999999998 2.6497146747295677 0.4244999999999999 2.6497146747295677 0.4484999999999999 M 2.9767146747295676 0.6359999999999999 C 2.9032146747295675 0.7709999999999999 2.8222146747295676 0.8864999999999998 2.7772146747295676 0.8864999999999998 C 2.7637146747295676 0.8864999999999998 2.7367146747295674 0.8639999999999999 2.7367146747295674 0.8444999999999998 C 2.7367146747295674 0.7244999999999999 2.8387146747295677 0.47549999999999987 2.8387146747295677 0.4229999999999998 C 2.8387146747295677 0.38549999999999984 2.7487146747295674 0.3749999999999999 2.7097146747295677 0.3749999999999999 C 2.7097146747295677 0.3749999999999999 2.6332146747295675 0.2849999999999998 2.5132146747295674 0.2849999999999998 C 2.3767146747295675 0.2849999999999998 2.1982146747295674 0.6164999999999998 2.1982146747295674 0.8144999999999999 C 2.1982146747295674 0.8954999999999999 2.3227146747295677 0.9899999999999999 2.3917146747295677 0.9899999999999999 C 2.4682146747295675 0.9899999999999999 2.5582146747295678 0.8909999999999999 2.5582146747295678 0.8909999999999999 C 2.5702146747295673 0.9329999999999998 2.6947146747295676 0.9899999999999999 2.7622146747295675 0.9899999999999999 C 2.8702146747295676 0.9899999999999999 2.9587146747295674 0.8534999999999999 3.0412146747295674 0.7034999999999998 C 3.0412146747295674 0.7034999999999998 3.0607146747295677 0.6689999999999998 3.0607146747295677 0.6509999999999998 C 3.0607146747295677 0.6329999999999998 3.0292146747295674 0.6089999999999999 3.0097146747295676 0.6089999999999999 C 2.9902146747295677 0.6089999999999999 2.9767146747295676 0.6359999999999999 2.9767146747295676 0.6359999999999999 M 3.3652425067608176 0.8864999999999998 C 3.3517425067608175 0.8864999999999998 3.3382425067608175 0.8759999999999999 3.3382425067608175 0.8594999999999998 C 3.3382425067608175 0.7739999999999998 3.4252425067608177 0.49949999999999983 3.4252425067608177 0.44999999999999984 C 3.4252425067608177 0.3869999999999999 3.2347425067608175 0.3719999999999999 3.2347425067608175 0.3344999999999999 C 3.2347425067608175 0.2954999999999999 3.2572425067608175 0.2579999999999999 3.2572425067608175 0.2264999999999998 C 3.2572425067608175 0.19199999999999984 3.1807425067608177 0.1439999999999998 3.137242506760818 0.1439999999999998 C 3.0997425067608178 0.1439999999999998 3.0367425067608176 0.2609999999999999 3.0367425067608176 0.31199999999999983 C 3.0367425067608176 0.3629999999999999 3.0997425067608178 0.4019999999999998 3.0997425067608178 0.4019999999999998 C 3.0997425067608178 0.4019999999999998 3.044242506760818 0.5414999999999999 2.9917425067608177 0.6359999999999999 C 2.9917425067608177 0.6359999999999999 2.9707425067608177 0.6719999999999999 2.9707425067608177 0.6899999999999998 C 2.9707425067608177 0.7064999999999999 3.0022425067608176 0.7304999999999999 3.0232425067608175 0.7304999999999999 C 3.0412425067608178 0.7304999999999999 3.0562425067608174 0.7034999999999998 3.0562425067608174 0.7034999999999998 C 3.1297425067608176 0.5684999999999998 3.1822425067608178 0.4454999999999999 3.1822425067608178 0.4454999999999999 C 3.1822425067608178 0.4454999999999999 3.242242506760818 0.4574999999999999 3.242242506760818 0.47399999999999987 C 3.242242506760818 0.5429999999999999 3.1627425067608175 0.7574999999999998 3.1627425067608175 0.8744999999999998 C 3.1627425067608175 0.9329999999999998 3.2827425067608176 0.9899999999999999 3.3502425067608175 0.9899999999999999 C 3.4582425067608176 0.9899999999999999 3.546742506760818 0.8534999999999999 3.629242506760818 0.7034999999999998 C 3.629242506760818 0.7034999999999998 3.6487425067608177 0.6689999999999998 3.6487425067608177 0.6509999999999998 C 3.6487425067608177 0.6329999999999998 3.617242506760818 0.6089999999999999 3.5977425067608175 0.6089999999999999 C 3.5782425067608177 0.6089999999999999 3.5647425067608176 0.6359999999999999 3.5647425067608176 0.6359999999999999 C 3.4912425067608175 0.7709999999999999 3.4102425067608175 0.8864999999999998 3.3652425067608176 0.8864999999999998 M 3.878271071213943 0.1619999999999998 C 3.8812710712139427 0.15149999999999986 3.8842710712139428 0.1349999999999999 3.8842710712139428 0.1259999999999999 C 3.8842710712139428 0.09899999999999987 3.785271071213943 0.041999999999999815 3.7552710712139428 0.041999999999999815 C 3.7432710712139428 0.041999999999999815 3.7297710712139427 0.053999999999999826 3.723771071213943 0.07499999999999984 C 3.713271071213943 0.10799999999999987 3.689271071213943 0.19499999999999984 3.6607710712139427 0.2999999999999998 L 3.618771071213943 0.2999999999999998 C 3.594771071213943 0.2999999999999998 3.5677710712139428 0.3599999999999999 3.5677710712139428 0.3779999999999999 C 3.5677710712139428 0.3869999999999999 3.5767710712139427 0.3929999999999999 3.584271071213943 0.3929999999999999 L 3.6352710712139427 0.3929999999999999 C 3.584271071213943 0.5879999999999999 3.5302710712139427 0.8039999999999998 3.5302710712139427 0.8444999999999998 C 3.5302710712139427 0.9194999999999999 3.6712710712139427 0.9899999999999999 3.7732710712139426 0.9899999999999999 C 3.8827710712139427 0.9899999999999999 3.971271071213943 0.8534999999999999 4.0537710712139425 0.7034999999999998 C 4.0537710712139425 0.7034999999999998 4.073271071213942 0.6689999999999998 4.073271071213942 0.6509999999999998 C 4.073271071213942 0.6329999999999998 4.041771071213943 0.6089999999999999 4.022271071213943 0.6089999999999999 C 4.002771071213942 0.6089999999999999 3.9892710712139428 0.6359999999999999 3.9892710712139428 0.6359999999999999 C 3.9157710712139426 0.7709999999999999 3.8332710712139426 0.8864999999999998 3.7897710712139427 0.8864999999999998 C 3.747771071213943 0.8864999999999998 3.7057710712139427 0.8504999999999998 3.7057710712139427 0.8024999999999999 C 3.7057710712139427 0.7679999999999998 3.761271071213943 0.5624999999999998 3.8107710712139427 0.3929999999999999 L 3.9307710712139428 0.3929999999999999 C 3.954771071213943 0.3929999999999999 3.983271071213943 0.33299999999999985 3.983271071213943 0.3134999999999999 C 3.983271071213943 0.3044999999999999 3.9742710712139426 0.2999999999999998 3.9652710712139427 0.2999999999999998 L 3.8362710712139427 0.2999999999999998 M 4.250286452073318 0.9899999999999999 C 4.391286452073318 0.9899999999999999 4.544286452073318 0.8759999999999999 4.653786452073318 0.7034999999999998 C 4.653786452073318 0.7034999999999998 4.6747864520733176 0.6689999999999998 4.6747864520733176 0.6509999999999998 C 4.6747864520733176 0.6329999999999998 4.643286452073318 0.6089999999999999 4.622286452073318 0.6089999999999999 C 4.6042864520733175 0.6089999999999999 4.589286452073318 0.6359999999999999 4.589286452073318 0.6359999999999999 C 4.488786452073318 0.7964999999999999 4.358286452073318 0.8834999999999998 4.278786452073318 0.8834999999999998 C 4.2292864520733175 0.8834999999999998 4.164786452073318 0.8339999999999999 4.164786452073318 0.7799999999999998 C 4.164786452073318 0.6149999999999999 4.259286452073318 0.3869999999999999 4.338786452073318 0.3869999999999999 C 4.355286452073318 0.3869999999999999 4.373286452073318 0.3989999999999998 4.373286452073318 0.40949999999999986 C 4.373286452073318 0.43799999999999983 4.328286452073318 0.4934999999999999 4.328286452073318 0.5249999999999999 C 4.328286452073318 0.5504999999999999 4.385286452073318 0.5879999999999999 4.422786452073318 0.5879999999999999 C 4.452786452073318 0.5879999999999999 4.500786452073318 0.46199999999999986 4.500786452073318 0.4199999999999998 C 4.500786452073318 0.3599999999999999 4.3927864520733175 0.2849999999999998 4.293786452073318 0.2849999999999998 C 4.125786452073318 0.2849999999999998 3.978786452073318 0.5729999999999998 3.978786452073318 0.7829999999999999 C 3.978786452073318 0.8894999999999998 4.125786452073318 0.9899999999999999 4.250286452073318 0.9899999999999999 M 5.018308424729568 0.4484999999999999 C 5.018308424729568 0.4904999999999999 4.971808424729568 0.6719999999999999 4.941808424729569 0.7349999999999999 C 4.899808424729568 0.8219999999999998 4.824808424729569 0.8744999999999998 4.794808424729569 0.8744999999999998 C 4.7693084247295685 0.8744999999999998 4.742308424729568 0.8489999999999999 4.742308424729568 0.8144999999999999 C 4.742308424729568 0.6824999999999999 4.8623084247295685 0.4049999999999998 4.937308424729569 0.4049999999999998 C 4.961308424729569 0.4049999999999998 5.018308424729568 0.4244999999999999 5.018308424729568 0.4484999999999999 M 5.345308424729568 0.6359999999999999 C 5.271808424729569 0.7709999999999999 5.1908084247295685 0.8864999999999998 5.145808424729569 0.8864999999999998 C 5.132308424729569 0.8864999999999998 5.105308424729569 0.8639999999999999 5.105308424729569 0.8444999999999998 C 5.105308424729569 0.7244999999999999 5.207308424729568 0.47549999999999987 5.207308424729568 0.4229999999999998 C 5.207308424729568 0.38549999999999984 5.117308424729568 0.3749999999999999 5.078308424729569 0.3749999999999999 C 5.078308424729569 0.3749999999999999 5.001808424729568 0.2849999999999998 4.881808424729568 0.2849999999999998 C 4.7453084247295685 0.2849999999999998 4.566808424729569 0.6164999999999998 4.566808424729569 0.8144999999999999 C 4.566808424729569 0.8954999999999999 4.691308424729568 0.9899999999999999 4.760308424729568 0.9899999999999999 C 4.836808424729568 0.9899999999999999 4.926808424729568 0.8909999999999999 4.926808424729568 0.8909999999999999 C 4.938808424729569 0.9329999999999998 5.063308424729568 0.9899999999999999 5.130808424729569 0.9899999999999999 C 5.2388084247295685 0.9899999999999999 5.327308424729568 0.8534999999999999 5.409808424729569 0.7034999999999998 C 5.409808424729569 0.7034999999999998 5.429308424729569 0.6689999999999998 5.429308424729569 0.6509999999999998 C 5.429308424729569 0.6329999999999998 5.397808424729568 0.6089999999999999 5.3783084247295685 0.6089999999999999 C 5.358808424729569 0.6089999999999999 5.345308424729568 0.6359999999999999 5.345308424729568 0.6359999999999999 M 5.733836256760818 0.8864999999999998 C 5.7203362567608185 0.8864999999999998 5.706836256760818 0.8759999999999999 5.706836256760818 0.8594999999999998 C 5.706836256760818 0.7739999999999998 5.793836256760818 0.49949999999999983 5.793836256760818 0.44999999999999984 C 5.793836256760818 0.3869999999999999 5.6033362567608185 0.3719999999999999 5.6033362567608185 0.3344999999999999 C 5.6033362567608185 0.2954999999999999 5.625836256760818 0.2579999999999999 5.625836256760818 0.2264999999999998 C 5.625836256760818 0.19199999999999984 5.549336256760818 0.1439999999999998 5.505836256760818 0.1439999999999998 C 5.468336256760818 0.1439999999999998 5.405336256760818 0.2609999999999999 5.405336256760818 0.31199999999999983 C 5.405336256760818 0.3629999999999999 5.468336256760818 0.4019999999999998 5.468336256760818 0.4019999999999998 C 5.468336256760818 0.4019999999999998 5.412836256760818 0.5414999999999999 5.360336256760818 0.6359999999999999 C 5.360336256760818 0.6359999999999999 5.339336256760818 0.6719999999999999 5.339336256760818 0.6899999999999998 C 5.339336256760818 0.7064999999999999 5.3708362567608186 0.7304999999999999 5.3918362567608185 0.7304999999999999 C 5.409836256760818 0.7304999999999999 5.424836256760818 0.7034999999999998 5.424836256760818 0.7034999999999998 C 5.498336256760818 0.5684999999999998 5.550836256760818 0.4454999999999999 5.550836256760818 0.4454999999999999 C 5.550836256760818 0.4454999999999999 5.610836256760818 0.4574999999999999 5.610836256760818 0.47399999999999987 C 5.610836256760818 0.5429999999999999 5.531336256760818 0.7574999999999998 5.531336256760818 0.8744999999999998 C 5.531336256760818 0.9329999999999998 5.6513362567608185 0.9899999999999999 5.718836256760818 0.9899999999999999 C 5.826836256760818 0.9899999999999999 5.915336256760818 0.8534999999999999 5.997836256760818 0.7034999999999998 C 5.997836256760818 0.7034999999999998 6.017336256760818 0.6689999999999998 6.017336256760818 0.6509999999999998 C 6.017336256760818 0.6329999999999998 5.985836256760818 0.6089999999999999 5.966336256760818 0.6089999999999999 C 5.946836256760818 0.6089999999999999 5.9333362567608186 0.6359999999999999 5.9333362567608186 0.6359999999999999 C 5.859836256760818 0.7709999999999999 5.778836256760818 0.8864999999999998 5.733836256760818 0.8864999999999998 M 6.3608648212139425 0.44699999999999984 C 6.3383648212139425 0.5474999999999999 6.317364821213943 0.6269999999999998 6.282864821213943 0.7244999999999999 C 6.264864821213942 0.7754999999999999 6.185364821213943 0.8744999999999998 6.138864821213943 0.8744999999999998 C 6.107364821213943 0.8744999999999998 6.083364821213943 0.8459999999999999 6.083364821213943 0.7994999999999999 C 6.083364821213943 0.7064999999999999 6.195864821213942 0.4049999999999998 6.278364821213943 0.4049999999999998 C 6.3143648212139425 0.4049999999999998 6.3608648212139425 0.44699999999999984 6.3608648212139425 0.44699999999999984 M 6.471864821213943 0.9899999999999999 C 6.579864821213943 0.9899999999999999 6.668364821213943 0.8534999999999999 6.750864821213943 0.7034999999999998 C 6.750864821213943 0.7034999999999998 6.770364821213943 0.6689999999999998 6.770364821213943 0.6509999999999998 C 6.770364821213943 0.6329999999999998 6.738864821213943 0.6089999999999999 6.719364821213943 0.6089999999999999 C 6.699864821213943 0.6089999999999999 6.687864821213942 0.6359999999999999 6.687864821213942 0.6359999999999999 C 6.612864821213943 0.7709999999999999 6.531864821213943 0.8864999999999998 6.486864821213943 0.8864999999999998 C 6.473364821213943 0.8864999999999998 6.446364821213943 0.8639999999999999 6.446364821213943 0.8444999999999998 C 6.446364821213943 0.7724999999999999 6.512364821213943 0.5549999999999999 6.554364821213943 0.4019999999999998 C 6.612864821213943 0.18899999999999983 6.639864821213942 0.11999999999999988 6.639864821213942 0.0824999999999998 C 6.639864821213942 0.05699999999999983 6.546864821213942 -1.1102230246251565e-16 6.528864821213943 -1.1102230246251565e-16 C 6.506364821213943 -1.1102230246251565e-16 6.486864821213943 0.010499999999999843 6.4793648212139425 0.03299999999999981 C 6.456864821213943 0.10349999999999981 6.389364821213943 0.3464999999999998 6.389364821213943 0.3464999999999998 C 6.389364821213943 0.3464999999999998 6.3158648212139425 0.2849999999999998 6.233364821213943 0.2849999999999998 C 6.075864821213943 0.2849999999999998 5.909364821213943 0.6254999999999998 5.909364821213943 0.8234999999999999 C 5.909364821213943 0.8864999999999998 6.012864821213943 0.9899999999999999 6.1043648212139425 0.9899999999999999 C 6.170364821213943 0.9899999999999999 6.279864821213943 0.8894999999999998 6.279864821213943 0.8894999999999998 C 6.300864821213943 0.9209999999999998 6.404364821213943 0.9899999999999999 6.471864821213943 0.9899999999999999" fill="#ffffff" fill-rule="nonzero"></path></g><g><path d=" M 0.17423076923076924 1.7537307692307686 Q 0.1401923076923077 1.7537307692307686 0.11221153846153847 1.7413269230769226 Q 0.08423076923076923 1.7289230769230763 0.06375 1.7069999999999994 Q 0.043269230769230775 1.6850769230769225 0.03201923076923077 1.6568076923076918 Q 0.020769230769230772 1.628538461538461 0.020769230769230772 1.5968076923076917 Q 0.020769230769230772 1.5541153846153841 0.039807692307692315 1.5189230769230764 Q 0.058846153846153854 1.4837307692307686 0.09346153846153847 1.4626730769230765 Q 0.1280769230769231 1.441615384615384 0.17365384615384616 1.441615384615384 Q 0.21807692307692308 1.441615384615384 0.25125000000000003 1.4615192307692302 Q 0.28442307692307695 1.4814230769230763 0.30057692307692313 1.5148846153846147 L 0.25096153846153846 1.5304615384615379 Q 0.23942307692307693 1.509115384615384 0.21865384615384617 1.497288461538461 Q 0.1978846153846154 1.485461538461538 0.17250000000000001 1.485461538461538 Q 0.14480769230769233 1.485461538461538 0.12201923076923078 1.4998846153846148 Q 0.09923076923076923 1.5143076923076917 0.08596153846153846 1.5394038461538455 Q 0.0726923076923077 1.5644999999999993 0.0726923076923077 1.5968076923076917 Q 0.0726923076923077 1.628538461538461 0.08625000000000001 1.654211538461538 Q 0.09980769230769232 1.6798846153846148 0.12259615384615385 1.6948846153846149 Q 0.1453846153846154 1.7098846153846148 0.1730769230769231 1.7098846153846148 Q 0.1909615384615385 1.7098846153846148 0.20740384615384616 1.703538461538461 Q 0.22384615384615386 1.6971923076923072 0.23625000000000002 1.6865192307692303 Q 0.24865384615384617 1.6758461538461533 0.2532692307692308 1.6631538461538455 L 0.3028846153846154 1.6781538461538457 Q 0.29365384615384615 1.7000769230769226 0.27490384615384617 1.7170961538461533 Q 0.2561538461538462 1.734115384615384 0.23048076923076924 1.7439230769230765 Q 0.20480769230769233 1.7537307692307686 0.17423076923076924 1.7537307692307686 M 0.4950064791165866 1.7537307692307686 Q 0.46096801757812506 1.7537307692307686 0.4332757098858174 1.7413269230769226 Q 0.4055834021935097 1.7289230769230763 0.38539109450120196 1.707288461538461 Q 0.3651987868088943 1.6856538461538455 0.3542372483473558 1.6573846153846148 Q 0.34327570988581735 1.629115384615384 0.34327570988581735 1.5979615384615378 Q 0.34327570988581735 1.5662307692307686 0.3542372483473558 1.537961538461538 Q 0.3651987868088943 1.509692307692307 0.38539109450120196 1.4880576923076918 Q 0.4055834021935097 1.4664230769230764 0.4335641714242789 1.4540192307692301 Q 0.46154494065504814 1.441615384615384 0.4955834021935097 1.441615384615384 Q 0.5290449406550481 1.441615384615384 0.5567372483473558 1.4540192307692301 Q 0.5844295560396635 1.4664230769230764 0.6049103252704328 1.4880576923076918 Q 0.625391094501202 1.509692307692307 0.6363526329627405 1.537961538461538 Q 0.6473141714242789 1.5662307692307686 0.6473141714242789 1.5979615384615378 Q 0.6473141714242789 1.629115384615384 0.6363526329627405 1.6573846153846148 Q 0.625391094501202 1.6856538461538455 0.6051987868088944 1.707288461538461 Q 0.5850064791165865 1.7289230769230763 0.5570257098858173 1.7413269230769226 Q 0.5290449406550481 1.7537307692307686 0.4950064791165866 1.7537307692307686 M 0.3951987868088943 1.598538461538461 Q 0.3951987868088943 1.629692307692307 0.4087564791165866 1.6550769230769224 Q 0.4223141714242789 1.6804615384615378 0.4448141714242789 1.6951730769230764 Q 0.4673141714242789 1.7098846153846148 0.4950064791165866 1.7098846153846148 Q 0.5226987868088943 1.7098846153846148 0.5454872483473558 1.6948846153846149 Q 0.5682757098858173 1.6798846153846148 0.5818334021935097 1.654211538461538 Q 0.595391094501202 1.628538461538461 0.595391094501202 1.5973846153846147 Q 0.595391094501202 1.5662307692307686 0.5818334021935097 1.5408461538461533 Q 0.5682757098858173 1.515461538461538 0.5454872483473558 1.5004615384615378 Q 0.5226987868088943 1.485461538461538 0.4950064791165866 1.485461538461538 Q 0.4673141714242789 1.485461538461538 0.4448141714242789 1.5007499999999994 Q 0.4223141714242789 1.516038461538461 0.4087564791165866 1.5414230769230763 Q 0.3951987868088943 1.5668076923076917 0.3951987868088943 1.598538461538461 M 0.9761597618689906 1.747961538461538 L 0.9253905310997597 1.747961538461538 L 0.9253905310997597 1.5794999999999995 Q 0.9253905310997597 1.531615384615384 0.9106789926382213 1.5094038461538455 Q 0.8959674541766828 1.487192307692307 0.8659674541766829 1.487192307692307 Q 0.845198223407452 1.487192307692307 0.8247174541766829 1.4975769230769225 Q 0.8042366849459136 1.507961538461538 0.7883713003305289 1.5255576923076917 Q 0.7725059157151444 1.5431538461538457 0.7655828387920675 1.5662307692307686 L 0.7655828387920675 1.747961538461538 L 0.7148136080228367 1.747961538461538 L 0.7148136080228367 1.4468076923076918 L 0.7609674541766828 1.4468076923076918 L 0.7609674541766828 1.5114230769230763 Q 0.7730828387920674 1.4900769230769224 0.792121300330529 1.4744999999999995 Q 0.8111597618689905 1.4589230769230763 0.8353905310997597 1.4502692307692302 Q 0.859621300330529 1.441615384615384 0.8861597618689905 1.441615384615384 Q 0.912121300330529 1.441615384615384 0.9297174541766828 1.4511346153846147 Q 0.9473136080228366 1.4606538461538456 0.9574097618689905 1.4776730769230764 Q 0.9675059157151443 1.494692307692307 0.9718328387920674 1.51776923076923 Q 0.9761597618689906 1.5408461538461533 0.9761597618689906 1.567961538461538 L 0.9761597618689906 1.747961538461538 M 1.3223291015625003 1.747961538461538 L 1.2715598707932694 1.747961538461538 L 1.2715598707932694 1.5794999999999995 Q 1.2715598707932694 1.531615384615384 1.256848332331731 1.5094038461538455 Q 1.2421367938701926 1.487192307692307 1.2121367938701926 1.487192307692307 Q 1.1913675631009617 1.487192307692307 1.1708867938701926 1.4975769230769225 Q 1.1504060246394232 1.507961538461538 1.1345406400240388 1.5255576923076917 Q 1.118675255408654 1.5431538461538457 1.111752178485577 1.5662307692307686 L 1.111752178485577 1.747961538461538 L 1.0609829477163464 1.747961538461538 L 1.0609829477163464 1.4468076923076918 L 1.1071367938701926 1.4468076923076918 L 1.1071367938701926 1.5114230769230763 Q 1.1192521784855771 1.4900769230769224 1.1382906400240387 1.4744999999999995 Q 1.1573291015625002 1.4589230769230763 1.1815598707932695 1.4502692307692302 Q 1.2057906400240386 1.441615384615384 1.2323291015625002 1.441615384615384 Q 1.2582906400240388 1.441615384615384 1.2758867938701925 1.4511346153846147 Q 1.2934829477163463 1.4606538461538456 1.3035791015625002 1.4776730769230764 Q 1.3136752554086542 1.494692307692307 1.318002178485577 1.51776923076923 Q 1.3223291015625003 1.5408461538461533 1.3223291015625003 1.567961538461538 L 1.3223291015625003 1.747961538461538 M 1.5404215181790868 1.7537307692307686 Q 1.5063830566406253 1.7537307692307686 1.4784022874098561 1.7413269230769226 Q 1.450421518179087 1.7289230769230763 1.4299407489483176 1.707288461538461 Q 1.4094599797175484 1.6856538461538455 1.3982099797175485 1.6573846153846148 Q 1.3869599797175485 1.629115384615384 1.3869599797175485 1.5973846153846147 Q 1.3869599797175485 1.5546923076923072 1.406575364332933 1.5194999999999994 Q 1.4261907489483177 1.4843076923076917 1.4610945951021637 1.462961538461538 Q 1.49599844125601 1.441615384615384 1.54099844125601 1.441615384615384 Q 1.586575364332933 1.441615384615384 1.620325364332933 1.4632499999999995 Q 1.654075364332933 1.484884615384615 1.672825364332933 1.519788461538461 Q 1.691575364332933 1.5546923076923072 1.691575364332933 1.5950769230769226 Q 1.691575364332933 1.6008461538461534 1.6912869027944715 1.6063269230769226 Q 1.69099844125601 1.6118076923076918 1.690421518179087 1.6146923076923072 L 1.4406138258713945 1.6146923076923072 Q 1.4429215181790869 1.644115384615384 1.4570561335637022 1.6669038461538457 Q 1.4711907489483176 1.6896923076923072 1.4936907489483175 1.7026730769230765 Q 1.5161907489483175 1.7156538461538455 1.542152287409856 1.7156538461538455 Q 1.5698445951021638 1.7156538461538455 1.5943638258713946 1.7018076923076917 Q 1.6188830566406254 1.6879615384615378 1.6281138258713945 1.6654615384615379 L 1.6719599797175484 1.6775769230769224 Q 1.6621522874098562 1.6994999999999993 1.642825364332933 1.7168076923076918 Q 1.62349844125601 1.734115384615384 1.59724844125601 1.7439230769230765 Q 1.5709984412560098 1.7537307692307686 1.5404215181790868 1.7537307692307686 M 1.4388830566406252 1.5794999999999995 L 1.6442676720252407 1.5794999999999995 Q 1.6419599797175484 1.5500769230769225 1.6275369027944715 1.5275769230769225 Q 1.6131138258713946 1.5050769230769225 1.5906138258713947 1.4923846153846148 Q 1.5681138258713945 1.4796923076923072 1.54099844125601 1.4796923076923072 Q 1.5144599797175484 1.4796923076923072 1.4919599797175485 1.4923846153846148 Q 1.4694599797175485 1.5050769230769225 1.455325364332933 1.5275769230769225 Q 1.4411907489483176 1.5500769230769225 1.4388830566406252 1.5794999999999995 M 1.8871542593149042 1.7537307692307686 Q 1.8531157977764428 1.7537307692307686 1.8251350285456736 1.7413269230769226 Q 1.7971542593149044 1.7289230769230763 1.776673490084135 1.7069999999999994 Q 1.7561927208533659 1.6850769230769225 1.7449427208533659 1.6568076923076918 Q 1.733692720853366 1.628538461538461 1.733692720853366 1.5968076923076917 Q 1.733692720853366 1.5541153846153841 1.7527311823918272 1.5189230769230764 Q 1.7717696439302888 1.4837307692307686 1.8063850285456735 1.4626730769230765 Q 1.841000413161058 1.441615384615384 1.8865773362379812 1.441615384615384 Q 1.931000413161058 1.441615384615384 1.964173490084135 1.4615192307692302 Q 1.997346567007212 1.4814230769230763 2.0135004131610583 1.5148846153846147 L 1.9638850285456735 1.5304615384615379 Q 1.952346567007212 1.509115384615384 1.9315773362379811 1.497288461538461 Q 1.9108081054687505 1.485461538461538 1.8854234900841351 1.485461538461538 Q 1.8577311823918274 1.485461538461538 1.8349427208533657 1.4998846153846148 Q 1.8121542593149043 1.5143076923076917 1.7988850285456734 1.5394038461538455 Q 1.7856157977764426 1.5644999999999993 1.7856157977764426 1.5968076923076917 Q 1.7856157977764426 1.628538461538461 1.799173490084135 1.654211538461538 Q 1.8127311823918273 1.6798846153846148 1.8355196439302888 1.6948846153846149 Q 1.8583081054687505 1.7098846153846148 1.8860004131610582 1.7098846153846148 Q 1.9038850285456734 1.7098846153846148 1.9203273362379811 1.703538461538461 Q 1.9367696439302888 1.6971923076923072 1.949173490084135 1.6865192307692303 Q 1.9615773362379811 1.6758461538461533 1.9661927208533658 1.6631538461538455 L 2.0158081054687504 1.6781538461538457 Q 2.006577336237981 1.7000769230769226 1.9878273362379812 1.7170961538461533 Q 1.9690773362379812 1.734115384615384 1.9434042593149043 1.7439230769230765 Q 1.9177311823918273 1.7537307692307686 1.8871542593149042 1.7537307692307686 M 2.235048170823318 1.732961538461538 Q 2.2287020169771643 1.7358461538461534 2.217740478515626 1.7404615384615378 Q 2.2067789400540874 1.7450769230769225 2.1923558631310103 1.748538461538461 Q 2.177932786207933 1.7519999999999993 2.161778940054087 1.7519999999999993 Q 2.1433174015925487 1.7519999999999993 2.1277404785156255 1.745365384615384 Q 2.1121635554387024 1.7387307692307687 2.1029327862079334 1.7245961538461534 Q 2.093702016977164 1.7104615384615378 2.093702016977164 1.6891153846153841 L 2.093702016977164 1.486615384615384 L 2.052740478515626 1.486615384615384 L 2.052740478515626 1.4468076923076918 L 2.093702016977164 1.4468076923076918 L 2.093702016977164 1.3464230769230763 L 2.1444712477463947 1.3464230769230763 L 2.1444712477463947 1.4468076923076918 L 2.211971247746395 1.4468076923076918 L 2.211971247746395 1.486615384615384 L 2.1444712477463947 1.486615384615384 L 2.1444712477463947 1.673538461538461 Q 2.145625093900241 1.6896923076923072 2.155432786207933 1.6974807692307687 Q 2.1652404785156256 1.7052692307692303 2.178509709284856 1.7052692307692303 Q 2.1935097092848563 1.7052692307692303 2.206202016977164 1.7000769230769226 Q 2.218894324669472 1.6948846153846149 2.2229327862079336 1.6925769230769225 L 2.235048170823318 1.732961538461538 M 2.6019599797175488 1.7537307692307686 Q 2.5650369027944717 1.7537307692307686 2.536190748948318 1.7352692307692301 Q 2.5073445951021642 1.7168076923076918 2.490613825871395 1.6885384615384609 L 2.490613825871395 1.8708461538461534 L 2.439844595102164 1.8708461538461534 L 2.439844595102164 1.4468076923076918 L 2.4848445951021643 1.4468076923076918 L 2.4848445951021643 1.5033461538461532 Q 2.5027292104867795 1.4756538461538455 2.5315753643329333 1.4586346153846148 Q 2.560421518179087 1.441615384615384 2.5944599797175485 1.441615384615384 Q 2.625613825871395 1.441615384615384 2.6515753643329334 1.4543076923076916 Q 2.677536902794472 1.4669999999999994 2.6965753643329333 1.4889230769230763 Q 2.7156138258713947 1.5108461538461533 2.726286902794472 1.5388269230769225 Q 2.7369599797175486 1.5668076923076917 2.7369599797175486 1.5973846153846147 Q 2.7369599797175486 1.6400769230769225 2.719940748948318 1.6758461538461533 Q 2.702921518179087 1.711615384615384 2.6723445951021643 1.7326730769230763 Q 2.641767672025241 1.7537307692307686 2.6019599797175488 1.7537307692307686 M 2.5863830566406256 1.7098846153846148 Q 2.6088830566406256 1.7098846153846148 2.6270561335637024 1.7003653846153841 Q 2.6452292104867796 1.6908461538461532 2.6582099797175487 1.6749807692307686 Q 2.6711907489483178 1.659115384615384 2.678113825871395 1.6389230769230763 Q 2.685036902794472 1.6187307692307686 2.685036902794472 1.5973846153846147 Q 2.685036902794472 1.5748846153846148 2.67724844125601 1.5546923076923072 Q 2.6694599797175487 1.5344999999999995 2.655325364332933 1.5189230769230764 Q 2.641190748948318 1.5033461538461532 2.622440748948318 1.4944038461538456 Q 2.603690748948318 1.485461538461538 2.581767672025241 1.485461538461538 Q 2.5679215181790873 1.485461538461538 2.5532099797175487 1.4906538461538457 Q 2.53849844125601 1.4958461538461534 2.5252292104867795 1.505365384615384 Q 2.511959979717549 1.5148846153846147 2.5027292104867795 1.5269999999999995 Q 2.49349844125601 1.539115384615384 2.490613825871395 1.5529615384615378 L 2.490613825871395 1.6389230769230763 Q 2.499267672025241 1.658538461538461 2.513690748948318 1.674692307692307 Q 2.5281138258713947 1.6908461538461532 2.5471522874098564 1.7003653846153841 Q 2.566190748948318 1.7098846153846148 2.5863830566406256 1.7098846153846148 M 2.938297964242789 1.7537307692307686 Q 2.904259502704327 1.7537307692307686 2.876278733473558 1.7413269230769226 Q 2.848297964242789 1.7289230769230763 2.82781719501202 1.707288461538461 Q 2.8073364257812505 1.6856538461538455 2.7960864257812506 1.6573846153846148 Q 2.7848364257812506 1.629115384615384 2.7848364257812506 1.5973846153846147 Q 2.7848364257812506 1.5546923076923072 2.804451810396635 1.5194999999999994 Q 2.8240671950120197 1.4843076923076917 2.8589710411658658 1.462961538461538 Q 2.893874887319712 1.441615384615384 2.938874887319712 1.441615384615384 Q 2.984451810396635 1.441615384615384 3.018201810396635 1.4632499999999995 Q 3.051951810396635 1.484884615384615 3.0707018103966353 1.519788461538461 Q 3.089451810396635 1.5546923076923072 3.089451810396635 1.5950769230769226 Q 3.089451810396635 1.6008461538461534 3.0891633488581736 1.6063269230769226 Q 3.088874887319712 1.6118076923076918 3.088297964242789 1.6146923076923072 L 2.838490271935097 1.6146923076923072 Q 2.840797964242789 1.644115384615384 2.8549325796274045 1.6669038461538457 Q 2.8690671950120197 1.6896923076923072 2.8915671950120196 1.7026730769230765 Q 2.9140671950120196 1.7156538461538455 2.940028733473558 1.7156538461538455 Q 2.967721041165866 1.7156538461538455 2.9922402719350965 1.7018076923076917 Q 3.0167595027043275 1.6879615384615378 3.025990271935097 1.6654615384615379 L 3.0698364257812507 1.6775769230769224 Q 3.0600287334735583 1.6994999999999993 3.040701810396635 1.7168076923076918 Q 3.021374887319712 1.734115384615384 2.995124887319712 1.7439230769230765 Q 2.968874887319712 1.7537307692307686 2.938297964242789 1.7537307692307686 M 2.8367595027043273 1.5794999999999995 L 3.0421441180889426 1.5794999999999995 Q 3.0398364257812505 1.5500769230769225 3.025413348858174 1.5275769230769225 Q 3.0109902719350967 1.5050769230769225 2.9884902719350968 1.4923846153846148 Q 2.965990271935097 1.4796923076923072 2.938874887319712 1.4796923076923072 Q 2.9123364257812505 1.4796923076923072 2.8898364257812506 1.4923846153846148 Q 2.8673364257812506 1.5050769230769225 2.853201810396635 1.5275769230769225 Q 2.83906719501202 1.5500769230769225 2.8367595027043273 1.5794999999999995 M 3.283299936147837 1.7537307692307686 Q 3.2492614746093755 1.7537307692307686 3.221569166917068 1.7413269230769226 Q 3.19387685922476 1.7289230769230763 3.1736845515324523 1.707288461538461 Q 3.153492243840145 1.6856538461538455 3.1425307053786065 1.6573846153846148 Q 3.131569166917068 1.629115384615384 3.131569166917068 1.5979615384615378 Q 3.131569166917068 1.5662307692307686 3.1425307053786065 1.537961538461538 Q 3.153492243840145 1.509692307692307 3.1736845515324523 1.4880576923076918 Q 3.19387685922476 1.4664230769230764 3.2218576284555294 1.4540192307692301 Q 3.2498383976862986 1.441615384615384 3.28387685922476 1.441615384615384 Q 3.3173383976862985 1.441615384615384 3.3450307053786066 1.4540192307692301 Q 3.372723013070914 1.4664230769230764 3.393203782301683 1.4880576923076918 Q 3.4136845515324525 1.509692307692307 3.424646089993991 1.537961538461538 Q 3.4356076284555295 1.5662307692307686 3.4356076284555295 1.5979615384615378 Q 3.4356076284555295 1.629115384615384 3.424646089993991 1.6573846153846148 Q 3.4136845515324525 1.6856538461538455 3.3934922438401447 1.707288461538461 Q 3.3732999361478373 1.7289230769230763 3.345319166917068 1.7413269230769226 Q 3.3173383976862985 1.7537307692307686 3.283299936147837 1.7537307692307686 M 3.1834922438401447 1.598538461538461 Q 3.1834922438401447 1.629692307692307 3.1970499361478373 1.6550769230769224 Q 3.2106076284555294 1.6804615384615378 3.2331076284555293 1.6951730769230764 Q 3.2556076284555293 1.7098846153846148 3.283299936147837 1.7098846153846148 Q 3.3109922438401447 1.7098846153846148 3.333780705378606 1.6948846153846149 Q 3.356569166917068 1.6798846153846148 3.37012685922476 1.654211538461538 Q 3.3836845515324523 1.628538461538461 3.3836845515324523 1.5973846153846147 Q 3.3836845515324523 1.5662307692307686 3.37012685922476 1.5408461538461533 Q 3.356569166917068 1.515461538461538 3.333780705378606 1.5004615384615378 Q 3.3109922438401447 1.485461538461538 3.283299936147837 1.485461538461538 Q 3.2556076284555293 1.485461538461538 3.2331076284555293 1.5007499999999994 Q 3.2106076284555294 1.516038461538461 3.1970499361478373 1.5414230769230763 Q 3.1834922438401447 1.5668076923076917 3.1834922438401447 1.598538461538461 M 3.665222449669472 1.7537307692307686 Q 3.628299372746395 1.7537307692307686 3.599453218900241 1.7352692307692301 Q 3.5706070650540873 1.7168076923076918 3.553876295823318 1.6885384615384609 L 3.553876295823318 1.8708461538461534 L 3.503107065054087 1.8708461538461534 L 3.503107065054087 1.4468076923076918 L 3.5481070650540874 1.4468076923076918 L 3.5481070650540874 1.5033461538461532 Q 3.5659916804387026 1.4756538461538455 3.5948378342848564 1.4586346153846148 Q 3.62368398813101 1.441615384615384 3.657722449669472 1.441615384615384 Q 3.688876295823318 1.441615384615384 3.7148378342848565 1.4543076923076916 Q 3.740799372746395 1.4669999999999994 3.7598378342848564 1.4889230769230763 Q 3.778876295823318 1.5108461538461533 3.7895493727463947 1.5388269230769225 Q 3.8002224496694716 1.5668076923076917 3.8002224496694716 1.5973846153846147 Q 3.8002224496694716 1.6400769230769225 3.783203218900241 1.6758461538461533 Q 3.76618398813101 1.711615384615384 3.7356070650540874 1.7326730769230763 Q 3.705030141977164 1.7537307692307686 3.665222449669472 1.7537307692307686 M 3.6496455265925487 1.7098846153846148 Q 3.6721455265925487 1.7098846153846148 3.6903186035156255 1.7003653846153841 Q 3.7084916804387027 1.6908461538461532 3.7214724496694718 1.6749807692307686 Q 3.734453218900241 1.659115384615384 3.741376295823318 1.6389230769230763 Q 3.748299372746395 1.6187307692307686 3.748299372746395 1.5973846153846147 Q 3.748299372746395 1.5748846153846148 3.7405109112079336 1.5546923076923072 Q 3.7327224496694718 1.5344999999999995 3.7185878342848566 1.5189230769230764 Q 3.704453218900241 1.5033461538461532 3.685703218900241 1.4944038461538456 Q 3.666953218900241 1.485461538461538 3.645030141977164 1.485461538461538 Q 3.6311839881310104 1.485461538461538 3.616472449669472 1.4906538461538457 Q 3.601760911207933 1.4958461538461534 3.5884916804387026 1.505365384615384 Q 3.575222449669472 1.5148846153846147 3.5659916804387026 1.5269999999999995 Q 3.5567609112079333 1.539115384615384 3.553876295823318 1.5529615384615378 L 3.553876295823318 1.6389230769230763 Q 3.562530141977164 1.658538461538461 3.576953218900241 1.674692307692307 Q 3.5913762958233177 1.6908461538461532 3.6104147573617795 1.7003653846153841 Q 3.629453218900241 1.7098846153846148 3.6496455265925487 1.7098846153846148 M 3.869445049579328 1.3268076923076917 L 3.9202142803485587 1.3268076923076917 L 3.9202142803485587 1.6700769230769226 Q 3.9202142803485587 1.6948846153846149 3.9271373572716355 1.7006538461538456 Q 3.9340604341947123 1.7064230769230764 3.9438681265024047 1.7064230769230764 Q 3.9559835111177892 1.7064230769230764 3.9669450495793277 1.7038269230769225 Q 3.977906588040866 1.7012307692307687 3.9854065880408664 1.6983461538461533 L 3.9934835111177893 1.7398846153846148 Q 3.9807912034254818 1.7450769230769225 3.9634835111177895 1.748538461538461 Q 3.9461758188100973 1.7519999999999993 3.9329065880408662 1.7519999999999993 Q 3.9034835111177895 1.7519999999999993 3.8864642803485587 1.7352692307692301 Q 3.869445049579328 1.718538461538461 3.869445049579328 1.6885384615384609 L 3.869445049579328 1.3268076923076917 M 4.172335862379809 1.7537307692307686 Q 4.138297400841347 1.7537307692307686 4.110316631610578 1.7413269230769226 Q 4.082335862379809 1.7289230769230763 4.061855093149039 1.707288461538461 Q 4.04137432391827 1.6856538461538455 4.03012432391827 1.6573846153846148 Q 4.01887432391827 1.629115384615384 4.01887432391827 1.5973846153846147 Q 4.01887432391827 1.5546923076923072 4.038489708533655 1.5194999999999994 Q 4.058105093149039 1.4843076923076917 4.0930089393028855 1.462961538461538 Q 4.127912785456732 1.441615384615384 4.172912785456732 1.441615384615384 Q 4.218489708533655 1.441615384615384 4.252239708533655 1.4632499999999995 Q 4.285989708533655 1.484884615384615 4.3047397085336545 1.519788461538461 Q 4.323489708533655 1.5546923076923072 4.323489708533655 1.5950769230769226 Q 4.323489708533655 1.6008461538461534 4.323201246995193 1.6063269230769226 Q 4.322912785456731 1.6118076923076918 4.322335862379808 1.6146923076923072 L 4.0725281700721165 1.6146923076923072 Q 4.074835862379809 1.644115384615384 4.088970477764424 1.6669038461538457 Q 4.10310509314904 1.6896923076923072 4.12560509314904 1.7026730769230765 Q 4.14810509314904 1.7156538461538455 4.174066631610578 1.7156538461538455 Q 4.201758939302886 1.7156538461538455 4.226278170072116 1.7018076923076917 Q 4.250797400841347 1.6879615384615378 4.2600281700721165 1.6654615384615379 L 4.30387432391827 1.6775769230769224 Q 4.294066631610578 1.6994999999999993 4.274739708533655 1.7168076923076918 Q 4.255412785456731 1.734115384615384 4.229162785456731 1.7439230769230765 Q 4.202912785456732 1.7537307692307686 4.172335862379809 1.7537307692307686 M 4.0707974008413474 1.5794999999999995 L 4.276182016225962 1.5794999999999995 Q 4.27387432391827 1.5500769230769225 4.2594512469951935 1.5275769230769225 Q 4.245028170072116 1.5050769230769225 4.222528170072116 1.4923846153846148 Q 4.200028170072116 1.4796923076923072 4.172912785456732 1.4796923076923072 Q 4.14637432391827 1.4796923076923072 4.12387432391827 1.4923846153846148 Q 4.10137432391827 1.5050769230769225 4.087239708533655 1.5275769230769225 Q 4.07310509314904 1.5500769230769225 4.0707974008413474 1.5794999999999995 M 4.537524789663462 1.747961538461538 L 4.537524789663462 1.4468076923076918 L 4.588294020432692 1.4468076923076918 L 4.588294020432692 1.747961538461538 L 4.537524789663462 1.747961538461538 M 4.537524789663462 1.3902692307692301 L 4.537524789663462 1.3268076923076917 L 4.588294020432692 1.3268076923076917 L 4.588294020432692 1.3902692307692301 L 4.537524789663462 1.3902692307692301 M 4.937321213942307 1.747961538461538 L 4.886551983173077 1.747961538461538 L 4.886551983173077 1.5794999999999995 Q 4.886551983173077 1.531615384615384 4.871840444711538 1.5094038461538455 Q 4.85712890625 1.487192307692307 4.82712890625 1.487192307692307 Q 4.80635967548077 1.487192307692307 4.78587890625 1.4975769230769225 Q 4.765398137019231 1.507961538461538 4.749532752403846 1.5255576923076917 Q 4.7336673677884615 1.5431538461538457 4.726744290865384 1.5662307692307686 L 4.726744290865384 1.747961538461538 L 4.675975060096154 1.747961538461538 L 4.675975060096154 1.4468076923076918 L 4.72212890625 1.4468076923076918 L 4.72212890625 1.5114230769230763 Q 4.734244290865385 1.4900769230769224 4.753282752403846 1.4744999999999995 Q 4.772321213942307 1.4589230769230763 4.796551983173077 1.4502692307692302 Q 4.820782752403846 1.441615384615384 4.847321213942307 1.441615384615384 Q 4.8732827524038465 1.441615384615384 4.89087890625 1.4511346153846147 Q 4.908475060096154 1.4606538461538456 4.9185712139423075 1.4776730769230764 Q 4.928667367788462 1.494692307692307 4.932994290865385 1.51776923076923 Q 4.937321213942307 1.5408461538461533 4.937321213942307 1.567961538461538 L 4.937321213942307 1.747961538461538 M 5.305408278245192 1.7537307692307686 Q 5.271369816706731 1.7537307692307686 5.2436775090144225 1.7413269230769226 Q 5.215985201322115 1.7289230769230763 5.1957928936298075 1.707288461538461 Q 5.1756005859375 1.6856538461538455 5.164639047475961 1.6573846153846148 Q 5.153677509014423 1.629115384615384 5.153677509014423 1.5979615384615378 Q 5.153677509014423 1.5662307692307686 5.164639047475961 1.537961538461538 Q 5.1756005859375 1.509692307692307 5.1957928936298075 1.4880576923076918 Q 5.215985201322115 1.4664230769230764 5.2439659705528845 1.4540192307692301 Q 5.271946739783654 1.441615384615384 5.305985201322115 1.441615384615384 Q 5.339446739783654 1.441615384615384 5.367139047475961 1.4540192307692301 Q 5.394831355168269 1.4664230769230764 5.415312124399038 1.4880576923076918 Q 5.435792893629808 1.509692307692307 5.446754432091346 1.537961538461538 Q 5.457715970552885 1.5662307692307686 5.457715970552885 1.5979615384615378 Q 5.457715970552885 1.629115384615384 5.446754432091346 1.6573846153846148 Q 5.435792893629808 1.6856538461538455 5.4156005859375 1.707288461538461 Q 5.395408278245192 1.7289230769230763 5.367427509014423 1.7413269230769226 Q 5.339446739783654 1.7537307692307686 5.305408278245192 1.7537307692307686 M 5.2056005859375 1.598538461538461 Q 5.2056005859375 1.629692307692307 5.2191582782451915 1.6550769230769224 Q 5.232715970552884 1.6804615384615378 5.255215970552884 1.6951730769230764 Q 5.277715970552884 1.7098846153846148 5.305408278245192 1.7098846153846148 Q 5.333100585937499 1.7098846153846148 5.355889047475961 1.6948846153846149 Q 5.378677509014422 1.6798846153846148 5.392235201322115 1.654211538461538 Q 5.405792893629807 1.628538461538461 5.405792893629807 1.5973846153846147 Q 5.405792893629807 1.5662307692307686 5.392235201322115 1.5408461538461533 Q 5.378677509014422 1.515461538461538 5.355889047475961 1.5004615384615378 Q 5.333100585937499 1.485461538461538 5.305408278245192 1.485461538461538 Q 5.277715970552884 1.485461538461538 5.255215970552884 1.5007499999999994 Q 5.232715970552884 1.516038461538461 5.2191582782451915 1.5414230769230763 Q 5.2056005859375 1.5668076923076917 5.2056005859375 1.598538461538461 M 5.786561560997595 1.747961538461538 L 5.735792330228365 1.747961538461538 L 5.735792330228365 1.5794999999999995 Q 5.735792330228365 1.531615384615384 5.721080791766826 1.5094038461538455 Q 5.706369253305287 1.487192307692307 5.676369253305287 1.487192307692307 Q 5.655600022536057 1.487192307692307 5.635119253305287 1.4975769230769225 Q 5.6146384840745185 1.507961538461538 5.598773099459134 1.5255576923076917 Q 5.582907714843749 1.5431538461538457 5.575984637920672 1.5662307692307686 L 5.575984637920672 1.747961538461538 L 5.525215407151442 1.747961538461538 L 5.525215407151442 1.4468076923076918 L 5.571369253305288 1.4468076923076918 L 5.571369253305288 1.5114230769230763 Q 5.583484637920672 1.4900769230769224 5.602523099459134 1.4744999999999995 Q 5.621561560997595 1.4589230769230763 5.645792330228365 1.4502692307692302 Q 5.670023099459134 1.441615384615384 5.696561560997595 1.441615384615384 Q 5.722523099459134 1.441615384615384 5.740119253305288 1.4511346153846147 Q 5.757715407151442 1.4606538461538456 5.767811560997595 1.4776730769230764 Q 5.777907714843749 1.494692307692307 5.782234637920673 1.51776923076923 Q 5.786561560997595 1.5408461538461533 5.786561560997595 1.567961538461538 L 5.786561560997595 1.747961538461538 M 6.004653977614182 1.7537307692307686 Q 5.97061551607572 1.7537307692307686 5.942634746844951 1.7413269230769226 Q 5.914653977614182 1.7289230769230763 5.894173208383412 1.707288461538461 Q 5.873692439152643 1.6856538461538455 5.862442439152643 1.6573846153846148 Q 5.851192439152643 1.629115384615384 5.851192439152643 1.5973846153846147 Q 5.851192439152643 1.5546923076923072 5.870807823768028 1.5194999999999994 Q 5.890423208383412 1.4843076923076917 5.9253270545372585 1.462961538461538 Q 5.960230900691105 1.441615384615384 6.005230900691105 1.441615384615384 Q 6.050807823768028 1.441615384615384 6.084557823768028 1.4632499999999995 Q 6.118307823768028 1.484884615384615 6.1370578237680276 1.519788461538461 Q 6.155807823768028 1.5546923076923072 6.155807823768028 1.5950769230769226 Q 6.155807823768028 1.6008461538461534 6.155519362229566 1.6063269230769226 Q 6.155230900691105 1.6118076923076918 6.154653977614181 1.6146923076923072 L 5.90484628530649 1.6146923076923072 Q 5.907153977614182 1.644115384615384 5.921288592998797 1.6669038461538457 Q 5.935423208383413 1.6896923076923072 5.957923208383413 1.7026730769230765 Q 5.980423208383413 1.7156538461538455 6.006384746844951 1.7156538461538455 Q 6.034077054537258 1.7156538461538455 6.058596285306489 1.7018076923076917 Q 6.08311551607572 1.6879615384615378 6.09234628530649 1.6654615384615379 L 6.1361924391526435 1.6775769230769224 Q 6.126384746844951 1.6994999999999993 6.107057823768028 1.7168076923076918 Q 6.0877309006911045 1.734115384615384 6.061480900691104 1.7439230769230765 Q 6.035230900691105 1.7537307692307686 6.004653977614182 1.7537307692307686 M 5.9031155160757205 1.5794999999999995 L 6.108500131460335 1.5794999999999995 Q 6.106192439152643 1.5500769230769225 6.0917693622295666 1.5275769230769225 Q 6.077346285306489 1.5050769230769225 6.054846285306489 1.4923846153846148 Q 6.032346285306489 1.4796923076923072 6.005230900691105 1.4796923076923072 Q 5.978692439152643 1.4796923076923072 5.956192439152643 1.4923846153846148 Q 5.933692439152643 1.5050769230769225 5.919557823768028 1.5275769230769225 Q 5.905423208383413 1.5500769230769225 5.9031155160757205 1.5794999999999995 M 6.525612135667066 1.732961538461538 Q 6.5192659818209115 1.7358461538461534 6.508304443359373 1.7404615384615378 Q 6.497342904897835 1.7450769230769225 6.482919827974758 1.748538461538461 Q 6.468496751051681 1.7519999999999993 6.452342904897835 1.7519999999999993 Q 6.433881366436297 1.7519999999999993 6.418304443359373 1.745365384615384 Q 6.4027275202824505 1.7387307692307687 6.393496751051681 1.7245961538461534 Q 6.384265981820912 1.7104615384615378 6.384265981820912 1.6891153846153841 L 6.384265981820912 1.486615384615384 L 6.343304443359373 1.486615384615384 L 6.343304443359373 1.4468076923076918 L 6.384265981820912 1.4468076923076918 L 6.384265981820912 1.3464230769230763 L 6.435035212590143 1.3464230769230763 L 6.435035212590143 1.4468076923076918 L 6.502535212590143 1.4468076923076918 L 6.502535212590143 1.486615384615384 L 6.435035212590143 1.486615384615384 L 6.435035212590143 1.673538461538461 Q 6.436189058743989 1.6896923076923072 6.445996751051681 1.6974807692307687 Q 6.455804443359374 1.7052692307692303 6.469073674128604 1.7052692307692303 Q 6.484073674128604 1.7052692307692303 6.496765981820912 1.7000769230769226 Q 6.509458289513219 1.6948846153846149 6.513496751051681 1.6925769230769225 L 6.525612135667066 1.732961538461538 M 6.555029296874999 1.6608461538461532 Q 6.555029296874999 1.6319999999999995 6.571471604567306 1.610942307692307 Q 6.587913912259614 1.589884615384615 6.616760066105767 1.5783461538461532 Q 6.6456062199519215 1.5668076923076917 6.683683143028844 1.5668076923076917 Q 6.703875450721152 1.5668076923076917 6.726375450721152 1.5699807692307686 Q 6.748875450721152 1.5731538461538457 6.766183143028845 1.5794999999999995 L 6.766183143028845 1.5575769230769225 Q 6.766183143028845 1.5229615384615378 6.745413912259614 1.5030576923076917 Q 6.724644681490383 1.4831538461538456 6.68656775841346 1.4831538461538456 Q 6.661760066105767 1.4831538461538456 6.638971604567306 1.4920961538461532 Q 6.616183143028844 1.5010384615384609 6.590798527644229 1.51776923076923 L 6.57233698918269 1.4819999999999993 Q 6.601760066105768 1.4618076923076917 6.631183143028844 1.451711538461538 Q 6.660606219951921 1.441615384615384 6.6923369891826905 1.441615384615384 Q 6.750029296874998 1.441615384615384 6.783490835336536 1.473634615384615 Q 6.816952373798075 1.5056538461538456 6.816952373798075 1.5627692307692302 L 6.816952373798075 1.6902692307692302 Q 6.816952373798075 1.6994999999999993 6.820702373798075 1.7038269230769225 Q 6.824452373798075 1.7081538461538457 6.8331062199519215 1.7087307692307687 L 6.8331062199519215 1.747961538461538 Q 6.825606219951921 1.749115384615384 6.820125450721152 1.7496923076923072 Q 6.814644681490383 1.7502692307692302 6.8111831430288445 1.7502692307692302 Q 6.793298527644229 1.7502692307692302 6.784356219951921 1.7404615384615378 Q 6.775413912259614 1.7306538461538457 6.774260066105767 1.7196923076923072 L 6.773106219951921 1.7006538461538456 Q 6.753490835336537 1.726038461538461 6.721760066105768 1.7398846153846148 Q 6.690029296874998 1.7537307692307686 6.658875450721152 1.7537307692307686 Q 6.628875450721152 1.7537307692307686 6.605221604567306 1.7413269230769226 Q 6.58156775841346 1.7289230769230763 6.568298527644229 1.707865384615384 Q 6.555029296874999 1.6868076923076918 6.555029296874999 1.6608461538461532 M 6.751183143028844 1.682192307692307 Q 6.758106219951921 1.674115384615384 6.7621446814903825 1.6657499999999994 Q 6.766183143028845 1.6573846153846148 6.766183143028845 1.651615384615384 L 6.766183143028845 1.614115384615384 Q 6.748298527644229 1.6071923076923071 6.728683143028844 1.603442307692307 Q 6.70906775841346 1.599692307692307 6.690029296874998 1.599692307692307 Q 6.651375450721152 1.599692307692307 6.627433143028845 1.6149807692307687 Q 6.603490835336537 1.6302692307692301 6.603490835336537 1.6568076923076918 Q 6.603490835336537 1.6712307692307686 6.611279296874998 1.684788461538461 Q 6.619067758413459 1.6983461538461533 6.634356219951921 1.7069999999999994 Q 6.649644681490383 1.7156538461538455 6.672144681490383 1.7156538461538455 Q 6.695798527644229 1.7156538461538455 6.717144681490383 1.7061346153846149 Q 6.7384908353365365 1.696615384615384 6.751183143028844 1.682192307692307 M 7.066192439152642 1.7537307692307686 Q 7.029269362229566 1.7537307692307686 7.0004232083834115 1.7352692307692301 Q 6.971577054537258 1.7168076923076918 6.9548462853064885 1.6885384615384609 L 6.9548462853064885 1.8708461538461534 L 6.904077054537258 1.8708461538461534 L 6.904077054537258 1.4468076923076918 L 6.949077054537258 1.4468076923076918 L 6.949077054537258 1.5033461538461532 Q 6.966961669921873 1.4756538461538455 6.995807823768027 1.4586346153846148 Q 7.024653977614181 1.441615384615384 7.058692439152643 1.441615384615384 Q 7.089846285306489 1.441615384615384 7.115807823768027 1.4543076923076916 Q 7.1417693622295655 1.4669999999999994 7.160807823768027 1.4889230769230763 Q 7.179846285306489 1.5108461538461533 7.190519362229566 1.5388269230769225 Q 7.201192439152643 1.5668076923076917 7.201192439152643 1.5973846153846147 Q 7.201192439152643 1.6400769230769225 7.184173208383412 1.6758461538461533 Q 7.1671539776141815 1.711615384615384 7.136577054537258 1.7326730769230763 Q 7.106000131460335 1.7537307692307686 7.066192439152642 1.7537307692307686 M 7.05061551607572 1.7098846153846148 Q 7.0731155160757195 1.7098846153846148 7.091288592998796 1.7003653846153841 Q 7.109461669921873 1.6908461538461532 7.122442439152643 1.6749807692307686 Q 7.135423208383412 1.659115384615384 7.1423462853064885 1.6389230769230763 Q 7.149269362229566 1.6187307692307686 7.149269362229566 1.5973846153846147 Q 7.149269362229566 1.5748846153846148 7.141480900691104 1.5546923076923072 Q 7.133692439152643 1.5344999999999995 7.1195578237680275 1.5189230769230764 Q 7.105423208383412 1.5033461538461532 7.086673208383412 1.4944038461538456 Q 7.067923208383412 1.485461538461538 7.046000131460335 1.485461538461538 Q 7.032153977614181 1.485461538461538 7.017442439152642 1.4906538461538457 Q 7.0027309006911045 1.4958461538461534 6.989461669921873 1.505365384615384 Q 6.976192439152642 1.5148846153846147 6.966961669921873 1.5269999999999995 Q 6.957730900691105 1.539115384615384 6.9548462853064885 1.5529615384615378 L 6.9548462853064885 1.6389230769230763 Q 6.963500131460335 1.658538461538461 6.9779232083834115 1.674692307692307 Q 6.992346285306489 1.6908461538461532 7.01138474684495 1.7003653846153841 Q 7.030423208383412 1.7098846153846148 7.05061551607572 1.7098846153846148" fill="#e9ae3f" fill-rule="nonzero"></path></g><g clip-path="url(#SvgjsClipPath1001)"><g clip-path="url(#afe57a727-495f-48f5-a811-0943ecec63c6d0e97bbc-450b-4692-8fbc-3649e93a3a55)"><path d=" M 1.3557827999189076 -2.623039103665672 L 0.9468765303889635 -2.623039103665672" fill="none" transform="matrix(1,0,0,1,0,0)" fill-rule="nonzero" stroke-dasharray="none" stroke-miterlimit="10" stroke-linejoin="round" stroke-linecap="round" stroke-width="0.14255055587587387" stroke="#bd2949"></path></g><g clip-path="url(#SvgjsClipPath1000d0e97bbc-450b-4692-8fbc-3649e93a3a55)"><path d=" M 1.5201333229015805 -2.0097019174450343 L 1.343061774077766 -1.9074694104560534" fill="none" transform="matrix(1,0,0,1,0,0)" fill-rule="nonzero" stroke-dasharray="none" stroke-miterlimit="10" stroke-linejoin="round" stroke-linecap="round" stroke-width="0.14255055587587387" stroke="#bd2949"></path></g><g clip-path="url(#SvgjsClipPath1000d0e97bbc-450b-4692-8fbc-3649e93a3a55)"><path d=" M 1.9691508776349855 -1.5606843627116294 L 1.7647096220830032 -1.2065650234899792 M 1.9691508776349855 -3.68537663961555 L 1.7647096220830032 -4.0394959788372" fill="none" transform="matrix(1,0,0,1,0,0)" fill-rule="nonzero" stroke-dasharray="none" stroke-miterlimit="10" stroke-linejoin="round" stroke-linecap="round" stroke-width="0.14255055587587387" stroke="#bd2949"></path></g><g clip-path="url(#SvgjsClipPath1000d0e97bbc-450b-4692-8fbc-3649e93a3a55)"><path d=" M 1.5201333229015805 -3.2363881551114924 L 1.343061774077766 -3.338620662100473" fill="none" transform="matrix(1,0,0,1,0,0)" fill-rule="nonzero" stroke-dasharray="none" stroke-miterlimit="10" stroke-linejoin="round" stroke-linecap="round" stroke-width="0.14255055587587387" stroke="#bd2949"></path></g><g clip-path="url(#bfe57a727-495f-48f5-a811-0943ecec63c6d0e97bbc-450b-4692-8fbc-3649e93a3a55)"><path d=" M 4.609546754637687 -1.4615371743890515 L 4.609546754637687 -0.6612345952759164 C 4.609546754637687 -0.4734717547614107 4.4573502778142124 -0.32127527793793664 4.269587437299707 -0.32127527793793664 L 2.824790036645767 -0.32127527793793664 C 2.637050954557241 -0.32127527793793664 2.4848544777337667 -0.4734717547614107 2.4848544777337667 -0.6612345952759164 L 2.4848544777337667 -4.230724272833777 C 2.4848544777337667 -4.418487113348283 2.637050954557241 -4.570683590171757 2.8247900366457666 -4.570683590171757 L 4.269587437299707 -4.570683590171757 C 4.4573502778142124 -4.570683590171757 4.6095467546376865 -4.418487113348283 4.6095467546376865 -4.230724272833777 L 4.6095467546376865 -3.7845410329422924" fill="none" transform="matrix(1,0,0,1,0,0)" fill-rule="nonzero" stroke-dasharray="none" stroke-miterlimit="10" stroke-linejoin="round" stroke-linecap="butt" stroke-width="0.14255055587587387" stroke="#bd2949"></path></g><g clip-path="url(#SvgjsClipPath1000d0e97bbc-450b-4692-8fbc-3649e93a3a55)"><path d=" M 3.370141243258988 -0.6754075598914766 L 3.724260582480638 -0.6754075598914766 M 2.4848547744178524 -1.0295268991131268 L 4.609547051321773 -1.0295268991131268 M 4.609547051321773 -4.216577193681998 L 2.4848547744178524 -4.216577193681998" fill="none" transform="matrix(1,0,0,1,0,0)" fill-rule="nonzero" stroke-dasharray="none" stroke-miterlimit="10" stroke-linejoin="round" stroke-linecap="round" stroke-width="0.14255055587587387" stroke="#bd2949"></path></g><g clip-path="url(#cfe57a727-495f-48f5-a811-0943ecec63c6d0e97bbc-450b-4692-8fbc-3649e93a3a55)"><path d=" M 3.088152188626444 -3.0899634494370964 L 6.204378615350985 -3.0899634494370964 L 6.204378615350985 -2.7786805522561466 L 3.088152188626444 -2.7786805522561466 Z M 6.054795565385233 -3.557909407525632 L 3.237735238592194 -3.557909407525632 C 3.155122801262933 -3.557909407525632 3.088152188626444 -3.490938794889143 3.088152188626444 -3.408326357559882 L 3.088152188626444 -1.8377518497714616 C 3.088152188626444 -1.7980799583200522 3.103911786143058 -1.760032924257902 3.131964049610846 -1.7319806607901134 C 3.160016313078634 -1.7039283973223256 3.198063347140785 -1.6881687998057116 3.237735238592194 -1.6881687998057116 L 6.054795565385233 -1.6881687998057116 C 6.137408002714495 -1.6881687998057116 6.204378615350984 -1.7551394124422006 6.204378615350984 -1.8377518497714616 L 6.204378615350984 -3.408326357559882 C 6.204378614119963 -3.490938797118104 6.137408000485535 -3.557909408756653 6.054795563156273 -3.557909407525632 Z M 3.4771964140376834 -2.098833192858125 L 4.686286470550866 -2.098833192858125 M 3.4771964140376834 -2.310734594167611 L 4.347111181270204 -2.310734594167611 M 5.709395568497992 -2.098833192858125 L 5.298731175445578 -2.098833192858125 C 5.240834830246563 -2.099700195134746 5.194355215568477 -2.1468810569644647 5.194355215568477 -2.204783893512868 C 5.194355215568477 -2.2626867300612723 5.240834830246563 -2.3098675918909906 5.298731175445578 -2.310734594167611 L 5.709395568497992 -2.310734594167611 C 5.767291913697007 -2.3098675918909906 5.813771528375093 -2.262686730061272 5.813771528375093 -2.204783893512868 C 5.813771528375093 -2.1468810569644647 5.767291913697006 -2.099700195134746 5.709395568497992 -2.098833192858125 Z" fill="none" transform="matrix(1,0,0,1,0,0)" fill-rule="nonzero" stroke-dasharray="none" stroke-miterlimit="4" stroke-linejoin="round" stroke-linecap="round" stroke-width="0.14255055587587387" stroke="#bd2949"></path></g></g></g><defs><clipPath id="SvgjsClipPath1001"><path d=" M 0.9468765303889635 -4.641958868109694 h 5.328777362899958 v 4.391958868109694 h -5.328777362899958 Z"></path></clipPath><clipPath id="afe57a727-495f-48f5-a811-0943ecec63c6d0e97bbc-450b-4692-8fbc-3649e93a3a55"><path d=" M 0.8756250108770058 -0.25 L 6.275653893288921 -0.25 L 6.275653893288921 -4.641958868109694 L 0.8756250108770058 -4.641958868109694 Z"></path></clipPath><clipPath id="SvgjsClipPath1000d0e97bbc-450b-4692-8fbc-3649e93a3a55"><path d=" M 0.9468765303889635 -4.641958868109694 L 6.275653893288921 -4.641958868109694 L 6.275653893288921 -0.25 L 0.9468765303889635 -0.25 Z"></path></clipPath><clipPath id="bfe57a727-495f-48f5-a811-0943ecec63c6d0e97bbc-450b-4692-8fbc-3649e93a3a55"><path d=" M 0.8756250108770058 -0.25 L 6.275653893288921 -0.25 L 6.275653893288921 -4.641958868109694 L 0.8756250108770058 -4.641958868109694 Z"></path></clipPath><clipPath id="cfe57a727-495f-48f5-a811-0943ecec63c6d0e97bbc-450b-4692-8fbc-3649e93a3a55"><path d=" M 0.8756250108770058 -0.25 L 6.275653893288921 -0.25 L 6.275653893288921 -4.641958868109694 L 0.8756250108770058 -4.641958868109694 Z"></path></clipPath></defs></svg>